<?xml version="1.0" encoding="UTF-8" ?>
<!DOCTYPE svg PUBLIC "-//W3C//DTD SVG 1.1//EN" "http://www.w3.org/Graphics/SVG/1.1/DTD/svg11.dtd">
<svg width="565pt" height="450pt" viewBox="0 0 565 450" version="1.1" xmlns="http://www.w3.org/2000/svg">
<g id="#ffffffff">
<path fill="#ffffff" opacity="1.00" d=" M 0.00 0.00 L 244.61 0.00 C 235.17 2.54 225.61 4.75 216.57 8.54 C 203.73 13.23 191.45 19.46 180.25 27.31 C 171.21 34.12 162.73 41.80 155.63 50.65 C 150.99 56.37 146.26 62.08 142.58 68.50 C 136.21 79.60 129.47 90.52 121.74 100.74 C 114.14 110.78 104.21 118.71 94.13 126.11 C 87.71 130.69 80.44 133.85 73.47 137.45 C 67.59 140.36 61.34 142.41 55.45 145.30 C 54.27 144.80 53.03 144.39 51.96 143.66 C 49.95 141.35 49.13 138.18 46.89 136.05 C 45.68 135.21 44.13 135.66 42.83 135.95 C 39.08 137.02 35.49 138.56 31.88 140.01 C 29.92 140.90 27.74 141.73 26.42 143.53 C 26.06 145.95 26.87 148.35 27.14 150.75 C 27.64 153.37 26.89 155.99 26.24 158.51 C 22.91 162.08 19.11 165.19 15.90 168.88 C 10.36 175.23 6.05 182.72 3.84 190.88 C 2.51 195.76 1.16 200.64 0.00 205.57 L 0.00 0.00 Z" />
<path fill="#ffffff" opacity="1.00" d=" M 261.40 0.00 L 565.00 0.00 L 565.00 261.71 C 554.66 267.02 544.59 272.84 534.37 278.37 C 528.45 281.78 522.04 284.42 516.75 288.82 C 522.89 286.70 528.30 283.04 533.99 279.99 C 540.04 276.72 546.06 273.38 552.08 270.05 C 556.42 267.63 560.95 265.52 565.00 262.62 L 565.00 450.00 L 248.56 450.00 C 260.27 441.76 272.90 434.91 284.70 426.81 C 288.23 424.81 291.86 422.97 295.25 420.72 C 299.05 421.41 302.91 421.84 306.78 421.60 C 328.33 420.34 349.67 416.28 370.38 410.23 C 382.08 406.22 393.42 401.19 404.34 395.41 C 419.27 387.89 432.38 376.80 442.44 363.47 C 446.92 357.62 450.07 350.91 453.28 344.31 C 457.00 336.15 460.86 327.88 462.12 318.91 C 473.52 312.60 485.17 306.75 496.61 300.53 C 502.61 297.35 509.01 294.74 514.24 290.29 C 508.24 292.69 502.65 295.94 496.96 298.97 C 490.03 302.75 482.91 306.17 476.05 310.07 C 471.92 312.43 467.58 314.38 463.22 316.26 C 463.20 315.71 463.17 314.62 463.15 314.07 C 469.08 310.07 475.62 307.13 481.88 303.72 C 507.18 290.09 532.58 276.64 557.85 262.95 C 559.91 261.76 561.99 260.60 564.06 259.40 C 558.71 258.12 553.25 257.10 548.23 254.78 C 538.40 250.20 528.96 244.50 518.39 241.73 C 505.94 238.41 493.49 235.06 481.04 231.70 C 481.16 228.14 481.61 224.58 481.48 221.02 C 481.30 217.49 479.10 214.56 477.23 211.72 C 476.31 210.33 475.31 209.00 474.28 207.69 C 473.24 206.32 472.23 204.93 471.12 203.62 C 471.53 200.41 471.67 197.15 471.19 193.94 C 468.69 177.88 465.18 161.90 459.30 146.71 C 453.72 131.31 445.39 116.81 434.22 104.78 C 425.62 95.79 414.85 88.70 402.88 85.13 C 395.76 82.98 388.31 82.39 381.05 80.95 C 374.19 79.62 367.59 77.28 361.00 75.02 C 349.65 71.08 339.28 64.65 330.28 56.74 C 319.41 47.96 310.20 37.41 301.28 26.72 C 296.07 20.31 290.16 14.44 283.49 9.55 C 276.91 4.81 269.01 2.51 261.40 0.00 Z" />
<path fill="#ffffff" opacity="1.00" d=" M 38.75 138.65 C 41.26 137.81 43.91 136.40 46.61 137.14 C 48.84 139.06 49.61 142.17 50.21 144.94 C 49.53 146.13 48.06 146.44 46.93 147.03 C 41.28 149.20 35.65 151.42 29.93 153.40 C 28.82 150.30 25.76 146.50 28.17 143.32 C 31.36 141.10 35.22 140.17 38.75 138.65 Z" />
<path fill="#ffffff" opacity="1.00" d=" M 368.55 160.68 C 378.85 164.46 390.34 162.00 399.69 156.81 C 400.31 157.76 400.93 158.72 401.55 159.67 C 400.40 159.31 399.25 158.94 398.11 158.58 C 397.69 159.91 397.27 161.25 396.86 162.59 C 398.32 161.96 399.80 161.33 401.28 160.71 C 401.23 161.50 401.14 163.06 401.09 163.85 C 398.80 164.67 396.51 165.49 394.22 166.30 C 395.15 166.87 396.09 167.45 397.03 168.03 C 394.89 170.83 392.76 173.74 389.85 175.80 C 384.67 179.53 377.60 180.93 371.56 178.58 C 368.14 177.27 365.99 174.15 363.87 171.34 C 365.51 170.11 367.35 169.04 368.53 167.33 C 369.28 165.19 368.81 162.87 368.55 160.68 M 375.82 166.52 C 378.39 166.49 380.96 166.35 383.52 166.11 C 382.40 165.56 381.41 164.44 380.10 164.47 C 378.57 164.90 377.21 165.76 375.82 166.52 M 369.78 170.71 C 370.70 171.16 371.62 171.61 372.54 172.06 C 372.04 169.69 371.62 167.31 371.22 164.92 C 370.71 166.84 370.23 168.77 369.78 170.71 M 369.76 174.77 C 371.37 175.20 373.00 175.96 374.71 175.73 C 376.12 175.31 377.28 174.34 378.51 173.56 C 375.56 173.77 372.64 174.20 369.76 174.77 Z" />
<path fill="#ffffff" opacity="1.00" d=" M 361.77 159.63 C 363.77 160.27 366.63 160.65 366.93 163.25 C 367.70 166.08 365.42 168.18 363.05 169.15 C 362.53 165.99 362.10 162.81 361.77 159.63 Z" />
<path fill="#ffffff" opacity="1.00" d=" M 41.73 166.14 C 44.74 165.01 47.76 163.92 50.82 162.95 C 67.77 205.82 84.44 248.80 101.39 291.67 C 102.63 294.99 104.47 298.20 104.80 301.78 C 103.84 305.59 99.18 305.35 96.09 305.48 C 91.11 293.47 86.56 281.28 81.82 269.17 C 79.29 268.44 76.77 267.69 74.26 266.90 C 74.40 267.57 74.68 268.92 74.82 269.59 C 69.12 268.88 64.94 264.80 60.44 261.66 C 59.21 260.67 57.68 259.64 57.59 257.89 C 57.18 253.38 60.07 249.57 62.49 246.07 C 64.25 250.55 66.45 255.10 70.65 257.80 C 73.15 256.32 75.84 255.18 78.70 254.61 C 77.29 256.29 75.93 258.01 74.38 259.57 C 77.80 260.74 81.23 261.93 84.39 263.72 C 81.38 263.35 78.40 262.83 75.43 262.29 C 75.02 263.48 74.61 264.67 74.20 265.87 C 76.88 266.50 79.57 267.03 82.30 267.41 C 80.05 266.29 77.79 265.19 75.54 264.05 C 78.70 264.31 81.85 264.71 85.00 265.12 C 84.33 266.47 83.67 267.82 83.00 269.17 C 83.72 269.06 85.16 268.85 85.88 268.74 C 86.20 267.29 86.57 265.85 86.65 264.37 C 84.65 261.48 80.96 260.62 78.00 259.05 C 79.09 257.08 80.18 255.10 81.23 253.10 C 79.13 253.15 77.03 253.24 74.93 253.33 C 73.70 248.15 71.51 243.28 69.57 238.34 C 62.00 218.90 54.33 199.50 46.74 180.07 C 44.91 175.49 42.87 170.96 41.73 166.14 Z" />
<path fill="#ffffff" opacity="1.00" d=" M 349.65 170.56 C 352.54 170.12 355.45 170.83 358.35 171.01 C 359.33 171.09 360.32 171.15 361.32 171.20 C 359.13 172.53 357.46 174.48 355.95 176.51 C 355.71 176.16 355.23 175.45 354.99 175.10 C 355.05 176.21 355.12 177.32 355.19 178.44 C 352.71 178.19 350.19 177.64 347.71 178.09 C 346.57 178.80 345.62 179.76 344.61 180.64 C 345.13 181.79 345.66 182.94 346.19 184.09 C 346.76 183.95 347.91 183.68 348.48 183.54 C 349.09 182.61 349.71 181.68 350.34 180.75 C 353.87 185.01 360.36 188.30 359.65 194.72 C 358.12 199.05 352.34 203.26 347.99 200.10 C 343.92 196.27 342.94 190.30 342.50 184.98 C 341.98 179.40 344.36 173.06 349.65 170.56 M 355.20 186.44 C 355.46 188.91 355.92 191.47 357.82 193.25 C 357.67 190.75 356.78 188.39 355.20 186.44 Z" />
<path fill="#ffffff" opacity="1.00" d=" M 91.58 195.17 C 92.12 189.21 95.52 183.96 100.01 180.16 C 96.91 184.00 93.45 187.88 92.56 192.91 C 90.65 200.01 92.23 207.29 93.35 214.37 C 90.76 208.34 91.10 201.56 91.58 195.17 Z" />
<path fill="#ffffff" opacity="1.00" d=" M 111.71 188.78 C 114.29 186.76 116.98 184.87 119.88 183.34 C 118.57 185.14 117.22 186.91 115.88 188.68 C 117.16 187.80 118.45 186.91 119.74 186.03 C 122.70 189.08 125.99 191.78 129.50 194.18 C 129.15 195.34 128.79 196.51 128.44 197.68 C 127.93 198.58 127.41 199.48 126.89 200.37 C 124.23 200.65 121.57 200.99 118.92 201.35 C 120.06 202.50 121.20 203.65 122.34 204.80 C 122.39 204.06 122.48 202.60 122.52 201.87 C 123.03 201.86 124.04 201.85 124.55 201.85 C 124.42 202.45 124.15 203.65 124.02 204.25 C 125.18 203.85 126.35 203.46 127.52 203.06 C 127.36 204.98 127.19 206.91 127.03 208.83 C 121.23 212.37 114.81 214.65 108.58 217.29 C 110.84 217.22 113.11 217.15 115.37 217.08 C 115.12 219.49 114.87 221.90 114.47 224.30 C 111.42 224.67 108.35 225.34 105.26 225.03 C 102.79 224.84 101.53 222.20 101.65 219.98 C 101.68 213.54 105.25 207.87 106.45 201.66 C 107.33 197.07 108.38 192.28 111.71 188.78 M 120.13 189.58 C 118.83 190.54 120.44 192.78 121.73 191.71 C 123.02 190.74 121.42 188.51 120.13 189.58 Z" />
<path fill="#ffffff" opacity="1.00" d=" M 359.65 197.62 C 362.32 194.40 365.58 190.89 370.03 190.61 C 376.21 190.44 381.61 194.05 386.44 197.50 C 390.36 200.47 395.41 203.51 395.41 209.09 C 393.31 210.84 391.33 212.92 388.68 213.81 C 386.17 214.52 382.83 213.76 381.78 211.13 C 380.72 208.79 380.29 206.24 379.90 203.72 C 379.85 203.25 379.75 202.31 379.70 201.84 C 378.05 206.39 376.88 211.17 374.51 215.43 C 372.53 218.98 369.36 221.63 366.27 224.19 C 359.04 227.71 352.04 231.76 345.67 236.67 C 342.87 238.84 339.94 240.89 336.66 242.27 C 336.12 242.23 335.03 242.14 334.49 242.10 L 333.70 241.39 C 342.83 227.09 349.08 211.01 359.65 197.62 Z" />
<path fill="#ffffff" opacity="1.00" d=" M 300.84 208.65 C 314.81 203.92 329.12 200.04 343.74 197.97 C 346.56 200.83 350.17 202.72 354.24 202.82 C 349.39 210.59 344.87 218.55 340.73 226.72 C 338.22 231.39 336.04 236.45 332.02 240.07 C 327.07 244.52 321.11 247.69 316.20 252.19 C 314.70 253.66 312.95 255.39 313.10 257.68 C 315.31 260.96 319.61 261.99 323.33 261.28 C 330.84 259.96 337.83 256.67 344.42 252.95 C 344.24 249.52 343.67 245.99 344.55 242.62 C 346.55 240.18 349.43 238.72 351.99 236.96 C 355.99 234.42 359.60 231.33 363.10 228.15 C 367.21 224.98 370.99 221.40 374.58 217.64 C 375.50 219.12 376.68 220.50 377.15 222.21 C 377.24 224.34 376.70 226.44 376.39 228.54 C 380.21 231.25 384.15 233.80 388.16 236.26 C 385.56 237.95 382.85 239.50 380.50 241.54 C 377.97 243.62 376.86 247.20 377.58 250.36 C 378.17 252.69 380.94 253.08 382.97 252.89 C 388.47 252.40 393.42 249.75 398.57 248.00 C 398.00 251.36 397.46 254.78 396.08 257.93 C 394.44 262.28 389.74 264.28 387.78 268.44 C 391.82 268.71 395.81 267.79 399.84 267.84 C 404.02 268.63 407.69 271.25 412.00 271.61 C 414.55 271.78 417.33 271.87 419.66 270.63 C 420.80 269.47 421.48 267.97 422.29 266.57 C 418.64 264.62 414.83 262.95 411.32 260.76 C 409.62 259.62 407.64 258.18 407.53 255.93 C 407.39 251.25 409.60 246.94 411.19 242.65 C 421.43 244.18 431.20 248.03 441.56 248.93 C 448.23 249.97 455.06 250.51 461.78 249.51 C 466.97 248.73 472.05 246.51 475.77 242.75 C 478.39 240.10 479.82 236.58 481.32 233.23 C 487.55 234.59 493.69 236.33 499.83 238.04 C 507.27 240.14 514.83 241.82 522.12 244.43 C 517.93 246.12 513.70 247.75 509.59 249.63 C 488.84 259.22 468.86 270.42 449.46 282.49 C 431.26 293.94 415.85 310.33 407.30 330.19 C 404.32 336.87 402.63 344.01 400.93 351.10 C 397.63 342.95 393.07 334.10 384.32 330.82 C 377.45 328.54 370.33 325.90 362.96 326.63 C 355.89 327.08 348.74 327.22 341.82 328.92 C 323.56 333.25 306.97 342.80 292.32 354.33 C 279.61 364.50 267.94 375.98 257.57 388.53 C 252.39 394.57 247.82 401.10 242.97 407.40 C 230.40 403.50 218.11 398.71 205.49 394.96 C 205.49 395.76 205.51 396.56 205.52 397.36 C 210.45 398.38 214.94 400.77 219.77 402.11 C 227.50 404.29 235.22 406.47 242.83 409.05 C 243.12 419.19 244.32 429.29 244.35 439.44 C 239.16 438.25 234.05 436.75 228.98 435.15 C 167.70 416.70 106.43 398.25 45.15 379.82 C 47.19 374.78 49.46 369.83 51.63 364.85 C 52.59 362.73 53.54 360.54 55.15 358.82 C 59.98 359.43 64.53 361.34 69.18 362.70 C 102.60 372.94 135.96 383.35 169.37 393.61 C 173.99 395.10 178.62 396.64 183.41 397.49 C 181.02 396.13 178.54 394.92 175.91 394.11 C 138.66 382.84 101.55 371.12 64.31 359.84 C 61.28 358.88 58.35 357.68 55.43 356.43 C 55.82 355.81 56.59 354.57 56.98 353.96 C 104.88 367.94 152.67 382.28 200.54 396.36 C 200.54 395.30 200.53 394.25 200.53 393.20 C 189.36 388.90 177.89 385.43 166.58 381.52 C 155.85 378.01 145.28 374.06 134.55 370.57 C 111.59 362.96 88.83 354.76 65.82 347.31 C 62.27 346.18 58.81 344.81 55.42 343.30 C 59.15 338.15 63.49 333.48 68.20 329.21 C 75.16 322.87 82.52 316.86 90.66 312.08 C 94.62 316.88 98.64 321.66 103.29 325.83 C 106.69 330.19 110.58 334.15 114.53 338.02 C 114.35 334.31 114.13 330.60 114.15 326.89 C 114.59 317.74 113.54 308.60 114.23 299.46 C 120.53 297.25 126.76 294.85 133.19 293.04 C 162.98 284.42 194.53 282.88 225.24 286.52 C 232.59 287.52 239.58 290.11 246.69 292.13 C 279.52 301.64 312.31 311.28 345.15 320.78 C 351.84 322.73 358.45 325.12 365.41 325.99 C 359.65 323.11 353.33 321.73 347.19 319.95 C 308.08 308.60 269.01 297.11 229.89 285.80 C 228.23 272.48 232.22 258.83 239.96 247.98 C 246.37 238.76 255.22 231.58 264.57 225.52 C 275.90 218.43 288.17 212.89 300.84 208.65 M 95.68 382.46 C 99.09 384.87 103.23 385.69 107.16 386.81 C 135.51 395.12 163.88 403.37 192.24 411.65 C 196.46 412.95 200.69 414.34 205.11 414.79 C 201.36 412.42 196.97 411.56 192.76 410.36 C 162.58 401.50 132.36 392.78 102.19 383.88 C 100.05 383.27 97.87 382.82 95.68 382.46 M 202.25 394.20 L 202.24 395.03 L 202.95 395.44 L 203.67 395.04 L 203.68 394.21 L 202.96 393.80 L 202.25 394.20 M 202.33 395.95 L 202.33 396.77 L 203.05 397.19 L 203.77 396.77 L 203.77 395.95 L 203.05 395.54 L 202.33 395.95 M 185.69 397.45 C 187.45 398.77 189.40 399.86 191.56 400.40 C 197.50 402.08 203.44 403.79 209.38 405.53 C 213.63 406.76 217.85 408.21 222.26 408.73 C 220.12 406.79 217.24 406.24 214.54 405.53 C 204.87 403.02 195.45 399.57 185.69 397.45 Z" />
<path fill="#ffffff" opacity="1.00" d=" M 131.72 205.78 C 136.11 208.05 140.66 210.41 144.11 214.02 C 146.47 217.98 145.72 223.01 148.01 227.02 C 151.48 233.18 154.44 239.88 154.80 247.03 C 154.94 249.57 154.13 252.57 151.62 253.72 C 148.55 254.48 145.19 254.06 142.38 252.63 C 140.02 251.47 138.61 249.15 137.11 247.11 C 138.90 245.73 140.70 244.36 142.51 243.01 C 144.46 245.87 146.82 248.46 149.80 250.26 C 147.91 247.76 145.60 245.53 144.23 242.69 C 142.06 237.59 142.58 231.89 141.29 226.59 C 138.98 223.78 134.63 222.23 134.22 218.18 C 135.33 216.01 136.99 214.20 138.52 212.32 C 136.03 210.39 133.71 208.23 131.72 205.78 Z" />
<path fill="#ffffff" opacity="1.00" d=" M 401.92 237.09 C 404.05 230.79 405.62 224.30 406.36 217.70 C 409.89 218.72 413.38 219.89 416.82 221.19 C 417.10 222.88 417.39 224.58 417.67 226.28 C 414.40 234.03 410.46 241.51 407.54 249.41 C 406.68 252.31 405.31 255.91 407.39 258.61 C 410.53 262.51 415.73 263.56 419.58 266.52 C 419.92 267.55 420.14 268.60 420.25 269.69 C 417.26 270.33 414.16 270.66 411.11 270.23 C 407.18 269.59 403.67 267.49 399.76 266.82 C 396.44 266.53 393.15 267.24 389.86 267.52 C 392.32 265.13 394.98 262.78 396.40 259.57 C 399.89 252.54 399.48 244.44 401.92 237.09 Z" />
<path fill="#ffffff" opacity="1.00" d=" M 446.83 223.84 C 454.61 219.51 463.71 216.62 472.67 218.20 C 476.17 218.60 478.26 221.87 479.18 224.98 C 481.54 232.02 478.25 240.17 472.14 244.18 C 464.25 249.57 454.26 248.43 445.21 248.46 C 438.58 247.60 432.02 246.32 425.52 244.74 C 421.10 243.64 416.54 242.90 412.35 241.04 C 412.87 239.47 413.42 237.81 414.58 236.58 C 417.53 234.75 421.08 234.29 424.40 233.47 C 433.97 231.53 443.36 228.39 453.17 227.83 C 457.47 227.50 461.60 228.93 465.67 230.11 C 463.10 228.62 460.45 227.00 457.41 226.80 C 452.47 226.40 447.57 227.44 442.66 227.89 C 444.01 226.50 445.36 225.10 446.83 223.84 Z" />
<path fill="#ffffff" opacity="1.00" d=" M 0.00 225.40 C 1.56 231.53 2.83 237.74 4.20 243.91 C 9.20 263.59 19.47 281.43 31.21 297.82 C 40.74 310.33 52.15 321.52 65.18 330.37 C 60.94 334.63 56.78 339.06 53.78 344.31 C 56.55 345.40 59.32 346.49 62.09 347.59 C 59.70 349.62 57.07 351.52 55.37 354.23 C 50.41 362.83 48.30 373.01 42.10 380.90 C 38.89 382.46 35.75 384.19 32.70 386.06 C 37.73 387.89 42.88 389.34 48.03 390.81 C 107.90 408.62 167.78 426.40 227.67 444.18 C 233.96 445.98 240.24 447.82 246.41 450.00 L 225.03 450.00 C 222.18 448.43 219.29 446.85 216.14 445.98 C 210.31 444.32 204.55 442.34 198.55 441.42 C 206.16 445.57 214.97 446.53 222.88 450.00 L 0.00 450.00 L 0.00 225.40 M 31.87 391.25 C 36.54 394.18 42.06 395.04 47.24 396.67 C 69.21 403.41 91.22 409.99 113.23 416.61 C 118.54 418.15 123.76 420.19 129.29 420.84 C 125.06 418.12 120.04 417.26 115.32 415.79 C 92.76 408.98 70.18 402.22 47.61 395.43 C 42.40 393.90 37.27 391.99 31.87 391.25 M 131.64 421.42 C 136.02 424.45 141.44 425.01 146.39 426.63 C 160.71 431.01 175.07 435.19 189.40 439.51 C 191.60 440.13 193.86 440.51 196.12 440.81 C 191.63 438.03 186.34 437.25 181.38 435.69 C 170.38 432.34 159.34 429.13 148.32 425.86 C 142.79 424.27 137.38 422.15 131.64 421.42 Z" />
<path fill="#ffffff" opacity="1.00" d=" M 110.10 242.20 C 113.63 241.36 117.20 240.66 120.77 240.04 C 122.01 240.95 122.96 242.42 122.72 244.03 C 122.39 247.47 119.83 250.08 117.87 252.73 C 115.07 251.56 111.98 250.43 110.20 247.80 C 108.97 246.27 108.39 243.60 110.10 242.20 Z" />
<path fill="#ffffff" opacity="1.00" d=" M 523.58 245.55 C 526.02 245.04 528.29 246.47 530.45 247.40 C 537.00 250.78 543.88 253.50 550.33 257.08 C 547.80 258.33 545.28 259.59 542.66 260.61 C 539.34 261.66 536.02 262.70 532.77 263.96 C 511.84 272.19 491.16 281.08 471.12 291.29 C 459.22 297.66 447.47 304.45 436.80 312.77 C 429.14 318.69 421.68 325.39 417.11 334.06 C 414.53 338.86 414.50 344.44 414.60 349.74 C 413.51 350.62 412.43 351.51 411.33 352.37 C 408.24 354.29 405.02 356.00 401.86 357.81 C 403.31 339.90 410.51 322.67 421.70 308.68 C 429.64 298.60 439.55 290.17 450.38 283.33 C 470.73 270.79 491.67 259.16 513.47 249.34 C 516.78 247.93 520.04 246.32 523.58 245.55 Z" />
<path fill="#ffffff" opacity="1.00" d=" M 90.89 310.65 C 97.76 306.86 105.22 304.15 112.74 301.97 C 112.87 310.37 113.01 318.78 113.21 327.18 C 111.17 327.75 109.12 328.29 107.08 328.83 C 105.66 327.62 104.22 326.44 102.83 325.20 C 99.36 319.94 95.00 315.39 90.89 310.65 Z" />
<path fill="#ffffff" opacity="1.00" d=" M 331.58 333.38 C 345.45 328.34 360.64 327.09 375.16 329.68 C 380.45 330.73 386.06 332.04 390.12 335.86 C 396.55 341.75 399.64 350.39 400.52 358.89 C 397.20 361.55 393.79 364.10 390.25 366.45 C 387.15 363.60 384.05 360.26 379.77 359.31 C 374.64 358.09 369.38 359.40 364.54 361.15 C 356.68 363.70 350.03 368.78 343.06 373.06 C 318.33 389.14 294.02 405.87 269.92 422.90 C 264.02 427.09 257.79 430.87 252.35 435.68 C 250.27 436.89 248.13 438.00 246.00 439.12 C 245.48 430.60 244.87 422.08 244.22 413.56 C 243.87 410.37 244.48 407.08 246.54 404.55 C 255.96 391.81 266.20 379.64 277.68 368.70 C 293.29 353.84 311.11 340.67 331.58 333.38 M 339.09 346.20 C 320.22 356.07 303.70 369.72 287.92 383.87 C 279.70 391.67 271.75 399.76 263.80 407.84 C 259.67 412.41 255.12 416.70 251.86 421.98 C 255.90 418.98 258.83 414.86 262.24 411.23 C 282.44 389.96 303.78 369.36 328.71 353.66 C 337.45 348.18 346.76 343.40 356.75 340.65 C 363.73 338.75 371.21 337.89 378.31 339.65 C 383.30 340.83 387.51 343.90 392.11 346.04 C 385.86 339.15 376.07 336.74 367.07 337.39 C 357.21 338.16 347.87 341.86 339.09 346.20 M 362.62 353.47 C 369.44 352.61 376.46 350.32 383.25 352.63 C 387.40 353.67 390.28 356.97 393.26 359.79 C 390.99 353.98 384.91 350.69 378.89 350.36 C 373.38 350.13 367.30 350.12 362.62 353.47 M 331.46 366.50 C 325.81 370.43 319.43 373.62 315.00 379.04 C 319.20 376.65 322.92 373.55 326.93 370.88 C 333.44 366.53 340.14 362.44 347.28 359.20 C 350.16 357.91 352.95 356.40 355.45 354.45 C 346.80 356.98 339.13 361.90 331.46 366.50 Z" />
<path fill="#ffffff" opacity="1.00" d=" M 57.97 352.73 C 59.88 351.05 61.86 349.45 63.87 347.90 C 72.56 350.89 81.28 353.76 89.92 356.89 C 106.07 362.43 122.33 367.62 138.39 373.40 C 152.40 378.11 166.41 382.83 180.41 387.57 C 185.40 389.29 190.56 390.62 195.28 393.07 C 188.75 392.12 182.63 389.59 176.33 387.77 C 136.88 376.08 97.42 364.43 57.97 352.73 Z" />
</g>
<g id="#feeed3ff">
<path fill="#feeed3" opacity="1.00" d=" M 244.61 0.00 L 261.40 0.00 C 269.01 2.51 276.91 4.81 283.49 9.55 C 290.16 14.44 296.07 20.31 301.28 26.72 C 310.20 37.41 319.41 47.96 330.28 56.74 C 339.28 64.65 349.65 71.08 361.00 75.02 C 367.59 77.28 374.19 79.62 381.05 80.95 C 388.31 82.39 395.76 82.98 402.88 85.13 C 414.85 88.70 425.62 95.79 434.22 104.78 C 445.39 116.81 453.72 131.31 459.30 146.71 C 465.18 161.90 468.69 177.88 471.19 193.94 C 471.67 197.15 471.53 200.41 471.12 203.62 C 466.26 199.58 463.73 193.78 460.34 188.63 C 451.85 177.56 440.02 169.27 427.23 163.89 C 419.51 160.55 411.03 159.71 402.71 159.93 C 402.13 157.10 401.26 154.19 401.88 151.29 C 404.50 149.18 407.97 148.70 411.01 147.41 C 410.31 148.37 409.61 149.33 408.91 150.29 C 411.39 149.49 413.86 148.65 416.33 147.83 C 416.54 146.98 416.74 146.14 416.95 145.29 C 417.62 145.19 418.98 145.01 419.66 144.91 C 420.19 145.45 421.26 146.52 421.80 147.06 C 423.12 145.86 424.68 143.91 422.43 142.72 C 414.53 137.92 406.28 133.57 397.64 130.23 C 393.61 128.22 389.59 126.08 385.24 124.84 C 381.11 123.62 376.84 124.96 372.80 125.87 C 361.63 128.77 350.26 131.42 339.88 136.61 C 340.12 136.98 340.59 137.74 340.83 138.11 C 341.07 138.29 341.55 138.66 341.79 138.84 C 343.53 140.14 345.75 141.92 347.87 140.24 C 349.12 140.51 350.34 140.91 351.59 141.20 C 353.13 143.06 354.71 144.89 356.33 146.69 C 356.29 145.82 356.22 144.08 356.18 143.21 C 356.70 143.61 357.74 144.40 358.26 144.80 C 358.55 148.56 359.00 152.30 359.51 156.04 C 359.55 156.39 359.62 157.09 359.65 157.44 C 358.44 159.02 356.93 160.47 356.27 162.38 C 355.75 164.74 355.88 167.18 355.83 169.58 C 353.52 168.84 350.78 168.06 348.57 169.52 C 344.57 171.98 341.60 176.30 341.16 181.03 C 340.66 186.17 342.04 191.23 343.25 196.18 C 335.89 198.05 328.37 199.21 321.02 201.13 C 305.16 205.13 289.58 210.51 275.06 218.10 C 265.79 222.70 257.10 228.49 249.42 235.42 C 240.41 243.62 233.18 254.06 229.97 265.91 C 228.15 272.18 228.18 278.75 227.99 285.22 C 207.34 283.08 186.44 282.30 165.80 284.95 C 157.20 285.75 148.84 288.05 140.31 289.27 C 139.67 283.54 138.51 277.90 137.53 272.23 C 136.59 268.26 139.87 264.94 139.79 261.06 C 139.70 258.09 139.10 255.17 138.61 252.25 C 142.44 253.93 146.53 256.07 150.84 255.18 C 153.46 254.74 155.65 252.55 155.87 249.87 C 156.62 243.38 154.53 236.91 151.65 231.17 C 150.01 227.97 148.46 224.69 147.75 221.15 C 146.87 217.79 146.53 213.81 143.50 211.58 C 139.09 208.08 134.12 205.37 129.34 202.43 C 129.07 201.11 128.81 199.79 128.57 198.46 C 129.31 197.02 130.09 195.59 130.66 194.07 C 128.27 191.47 124.96 189.94 122.59 187.31 C 120.31 184.33 121.10 180.08 118.98 177.03 C 115.82 173.40 111.05 170.91 106.16 171.34 C 101.47 171.65 96.76 172.56 92.41 174.37 C 87.06 176.61 82.58 181.18 81.05 186.85 C 79.81 191.48 79.88 196.47 81.13 201.10 C 82.71 206.72 86.41 211.37 89.95 215.89 C 87.72 217.43 85.49 218.99 83.27 220.56 C 77.08 205.05 71.07 189.47 64.93 173.95 C 63.09 169.46 61.21 164.95 60.31 160.17 C 59.36 155.02 57.56 150.08 55.45 145.30 C 61.34 142.41 67.59 140.36 73.47 137.45 C 80.44 133.85 87.71 130.69 94.13 126.11 C 104.21 118.71 114.14 110.78 121.74 100.74 C 129.47 90.52 136.21 79.60 142.58 68.50 C 146.26 62.08 150.99 56.37 155.63 50.65 C 162.73 41.80 171.21 34.12 180.25 27.31 C 191.45 19.46 203.73 13.23 216.57 8.54 C 225.61 4.75 235.17 2.54 244.61 0.00 M 349.33 142.00 L 349.32 142.82 L 350.03 143.24 L 350.75 142.84 L 350.76 142.02 L 350.05 141.59 L 349.33 142.00 M 418.23 145.98 L 418.24 146.80 L 418.95 147.21 L 419.67 146.80 L 419.67 145.98 L 418.95 145.57 L 418.23 145.98 Z" />
<path fill="#feeed3" opacity="1.00" d=" M 26.24 158.51 C 29.14 164.60 32.80 170.28 35.64 176.39 C 43.90 197.49 52.10 218.62 60.52 239.65 C 60.99 241.04 61.53 242.45 61.53 243.94 C 59.95 248.87 55.21 253.08 56.28 258.65 C 57.61 262.10 61.18 263.90 64.05 265.91 C 67.17 268.11 71.05 269.53 73.29 272.75 C 76.58 278.57 78.22 285.28 78.11 291.97 C 78.03 300.59 78.93 309.16 79.88 317.71 C 74.86 321.79 69.76 325.79 65.18 330.37 C 52.15 321.52 40.74 310.33 31.21 297.82 C 19.47 281.43 9.20 263.59 4.20 243.91 C 2.83 237.74 1.56 231.53 0.00 225.40 L 0.00 205.57 C 1.16 200.64 2.51 195.76 3.84 190.88 C 6.05 182.72 10.36 175.23 15.90 168.88 C 19.11 165.19 22.91 162.08 26.24 158.51 Z" />
<path fill="#feeed3" opacity="1.00" d=" M 357.44 165.42 C 357.03 163.16 358.81 161.48 360.13 159.92 C 360.46 162.80 360.64 165.69 360.59 168.59 C 359.49 167.58 358.36 166.59 357.44 165.42 Z" />
<path fill="#feeed3" opacity="1.00" d=" M 124.67 211.59 C 127.06 210.50 128.38 208.14 129.78 206.05 C 131.93 208.24 134.10 210.41 136.20 212.65 C 134.36 215.06 133.14 217.86 132.61 220.85 C 127.22 219.62 121.80 218.60 116.34 217.82 C 117.36 213.98 121.74 213.43 124.67 211.59 Z" />
<path fill="#feeed3" opacity="1.00" d=" M 97.96 222.55 C 95.05 220.83 95.97 217.45 97.18 214.95 C 98.08 217.39 98.28 219.98 97.96 222.55 Z" />
<path fill="#feeed3" opacity="1.00" d=" M 440.65 325.69 C 448.10 321.72 455.44 317.53 463.15 314.07 C 463.17 314.62 463.20 315.71 463.22 316.26 C 454.28 322.69 443.38 325.79 434.77 332.72 C 444.22 328.81 452.94 323.39 462.12 318.91 C 460.86 327.88 457.00 336.15 453.28 344.31 C 450.07 350.91 446.92 357.62 442.44 363.47 C 432.38 376.80 419.27 387.89 404.34 395.41 C 393.42 401.19 382.08 406.22 370.38 410.23 C 349.67 416.28 328.33 420.34 306.78 421.60 C 302.91 421.84 299.05 421.41 295.25 420.72 C 315.77 407.28 336.84 394.69 357.46 381.39 C 359.55 380.13 361.62 378.62 364.08 378.20 C 369.90 378.48 374.94 382.29 380.76 382.57 C 382.88 382.01 384.64 380.61 386.42 379.39 C 392.35 374.96 398.39 370.66 404.18 366.05 C 409.31 362.60 414.32 358.98 419.34 355.38 C 421.06 353.98 423.35 352.51 423.27 349.99 C 423.64 345.09 423.30 340.16 423.32 335.25 C 428.98 331.85 434.84 328.82 440.65 325.69 Z" />
</g>
<g id="#0b065aff">
<path fill="#0b065a" opacity="1.00" d=" M 372.80 125.87 C 376.84 124.96 381.11 123.62 385.24 124.84 C 389.59 126.08 393.61 128.22 397.64 130.23 C 404.87 135.43 413.31 138.48 420.99 142.90 C 420.66 143.41 419.99 144.41 419.66 144.91 C 418.98 145.01 417.62 145.19 416.95 145.29 C 406.07 146.79 396.23 152.02 385.78 155.06 C 383.96 155.61 381.94 155.81 380.21 154.86 C 370.80 150.09 361.83 144.11 351.59 141.20 C 350.34 140.91 349.12 140.51 347.87 140.24 C 345.85 139.76 343.81 139.32 341.79 138.84 C 341.55 138.66 341.07 138.29 340.83 138.11 C 340.59 137.74 340.12 136.98 339.88 136.61 C 350.26 131.42 361.63 128.77 372.80 125.87 Z" />
<path fill="#0b065a" opacity="1.00" d=" M 36.50 152.29 C 42.42 150.26 48.00 147.37 53.97 145.45 C 56.09 149.73 57.96 154.14 59.12 158.78 C 55.27 160.07 51.40 161.27 47.59 162.67 C 45.48 163.50 43.22 164.34 41.73 166.14 C 42.87 170.96 44.91 175.49 46.74 180.07 C 54.33 199.50 62.00 218.90 69.57 238.34 C 71.51 243.28 73.70 248.15 74.93 253.33 L 75.19 254.37 L 74.81 253.66 C 73.45 251.14 72.28 248.53 71.28 245.85 C 67.29 234.97 62.70 224.33 58.65 213.48 C 52.42 198.03 46.72 182.36 40.19 167.03 C 38.83 167.41 37.47 167.81 36.11 168.18 C 34.78 168.26 33.46 168.29 32.13 168.28 C 30.48 164.19 28.58 160.21 26.99 156.10 C 30.06 154.59 33.27 153.41 36.50 152.29 Z" />
<path fill="#0b065a" opacity="1.00" d=" M 359.90 145.55 C 364.05 147.05 368.16 148.69 371.98 150.91 C 374.96 152.55 377.76 154.54 380.94 155.79 C 383.00 156.66 385.21 155.75 387.21 155.16 C 391.56 153.61 395.91 152.03 400.38 150.82 C 400.23 152.45 400.08 154.08 399.93 155.71 C 395.51 157.54 391.15 159.62 386.46 160.68 C 380.49 162.01 374.24 161.46 368.39 159.84 C 365.48 159.01 362.58 158.18 359.65 157.44 C 359.62 157.09 359.55 156.39 359.51 156.04 C 359.46 152.54 359.68 149.04 359.90 145.55 Z" />
<path fill="#0b065a" opacity="1.00" d=" M 92.41 174.37 C 96.76 172.56 101.47 171.65 106.16 171.34 C 111.05 170.91 115.82 173.40 118.98 177.03 C 121.10 180.08 120.31 184.33 122.59 187.31 C 124.96 189.94 128.27 191.47 130.66 194.07 C 130.09 195.59 129.31 197.02 128.57 198.46 L 128.44 197.68 C 128.79 196.51 129.15 195.34 129.50 194.18 C 125.99 191.78 122.70 189.08 119.74 186.03 C 118.45 186.91 117.16 187.80 115.88 188.68 C 117.22 186.91 118.57 185.14 119.88 183.34 C 116.98 184.87 114.29 186.76 111.71 188.78 C 109.35 190.46 106.82 191.87 104.29 193.28 C 104.18 196.78 104.09 200.28 104.03 203.79 C 101.95 202.45 99.99 200.53 97.42 200.30 C 96.21 201.26 95.08 202.50 94.79 204.07 C 95.43 207.61 97.91 210.47 98.80 213.92 C 99.00 217.03 98.85 220.14 98.62 223.23 L 97.86 223.34 C 93.48 223.52 89.43 225.27 85.64 227.34 C 84.85 225.08 84.09 222.81 83.27 220.56 C 85.49 218.99 87.72 217.43 89.95 215.89 C 86.41 211.37 82.71 206.72 81.13 201.10 C 79.88 196.47 79.81 191.48 81.05 186.85 C 82.58 181.18 87.06 176.61 92.41 174.37 M 103.03 173.01 C 102.44 174.06 101.84 175.12 101.25 176.18 C 103.13 177.08 105.42 177.55 106.73 179.31 C 108.40 181.50 109.71 183.94 111.26 186.22 C 110.66 184.10 110.31 181.81 108.99 180.00 C 107.48 177.97 105.55 176.30 103.77 174.51 C 106.39 174.47 109.21 174.01 111.64 175.28 C 114.45 176.82 116.76 179.09 119.33 180.99 C 117.89 178.43 116.12 175.90 113.39 174.60 C 110.27 172.72 106.52 172.99 103.03 173.01 M 85.88 191.95 C 85.86 195.11 85.09 198.92 87.55 201.42 C 87.47 196.96 86.45 192.34 87.92 188.00 C 89.33 183.51 93.21 180.55 96.12 177.06 C 90.21 179.56 86.20 185.57 85.88 191.95 M 84.38 182.35 C 82.75 184.72 82.95 187.69 82.85 190.43 C 84.14 185.66 86.57 181.37 89.96 177.78 C 87.90 179.01 85.59 180.17 84.38 182.35 M 91.58 195.17 C 91.10 201.56 90.76 208.34 93.35 214.37 C 92.23 207.29 90.65 200.01 92.56 192.91 C 93.45 187.88 96.91 184.00 100.01 180.16 C 95.52 183.96 92.12 189.21 91.58 195.17 M 97.96 222.55 C 98.28 219.98 98.08 217.39 97.18 214.95 C 95.97 217.45 95.05 220.83 97.96 222.55 Z" />
<path fill="#0b065a" opacity="1.00" d=" M 460.92 200.87 C 461.89 200.07 462.91 199.32 463.92 198.56 C 467.33 201.66 470.89 204.58 474.28 207.69 C 475.31 209.00 476.31 210.33 477.23 211.72 C 478.22 214.11 479.03 216.58 479.87 219.03 C 468.99 215.81 455.57 215.51 446.83 223.84 C 445.36 225.10 444.01 226.50 442.66 227.89 C 447.57 227.44 452.47 226.40 457.41 226.80 C 460.45 227.00 463.10 228.62 465.67 230.11 C 461.60 228.93 457.47 227.50 453.17 227.83 C 443.36 228.39 433.97 231.53 424.40 233.47 C 421.08 234.29 417.53 234.75 414.58 236.58 C 413.42 237.81 412.87 239.47 412.35 241.04 C 416.54 242.90 421.10 243.64 425.52 244.74 C 432.02 246.32 438.58 247.60 445.21 248.46 C 443.99 248.62 442.77 248.77 441.56 248.93 C 431.20 248.03 421.43 244.18 411.19 242.65 C 409.60 246.94 407.39 251.25 407.53 255.93 C 407.64 258.18 409.62 259.62 411.32 260.76 C 414.83 262.95 418.64 264.62 422.29 266.57 C 421.48 267.97 420.80 269.47 419.66 270.63 C 417.33 271.87 414.55 271.78 412.00 271.61 C 407.69 271.25 404.02 268.63 399.84 267.84 C 395.81 267.79 391.82 268.71 387.78 268.44 C 389.74 264.28 394.44 262.28 396.08 257.93 C 397.46 254.78 398.00 251.36 398.57 248.00 C 393.42 249.75 388.47 252.40 382.97 252.89 C 380.94 253.08 378.17 252.69 377.58 250.36 C 376.86 247.20 377.97 243.62 380.50 241.54 C 382.85 239.50 385.56 237.95 388.16 236.26 C 384.15 233.80 380.21 231.25 376.39 228.54 C 376.70 226.44 377.24 224.34 377.15 222.21 C 376.68 220.50 375.50 219.12 374.58 217.64 C 370.99 221.40 367.21 224.98 363.10 228.15 C 364.17 226.84 365.18 225.48 366.27 224.19 C 369.36 221.63 372.53 218.98 374.51 215.43 C 376.88 211.17 378.05 206.39 379.70 201.84 C 379.75 202.31 379.85 203.25 379.90 203.72 C 379.14 207.39 377.57 210.79 376.29 214.29 C 375.92 215.47 375.35 216.80 376.06 217.98 C 377.51 221.03 379.84 223.54 381.94 226.15 C 387.66 222.42 392.17 217.06 394.83 210.77 C 395.81 208.74 396.84 206.74 397.86 204.73 C 398.31 205.08 399.22 205.77 399.67 206.11 C 401.26 207.87 402.71 209.75 404.35 211.47 C 404.92 212.00 405.51 212.52 406.13 213.02 C 406.17 213.43 406.25 214.25 406.29 214.66 C 406.34 215.67 406.36 216.68 406.36 217.70 C 405.62 224.30 404.05 230.79 401.92 237.09 C 399.48 244.44 399.89 252.54 396.40 259.57 C 394.98 262.78 392.32 265.13 389.86 267.52 C 393.15 267.24 396.44 266.53 399.76 266.82 C 403.67 267.49 407.18 269.59 411.11 270.23 C 414.16 270.66 417.26 270.33 420.25 269.69 C 420.14 268.60 419.92 267.55 419.58 266.52 C 415.73 263.56 410.53 262.51 407.39 258.61 C 405.31 255.91 406.68 252.31 407.54 249.41 C 410.46 241.51 414.40 234.03 417.67 226.28 C 418.12 225.19 418.55 224.10 418.98 223.01 C 419.90 221.24 420.90 219.47 422.34 218.06 C 428.25 217.57 434.41 219.82 440.10 217.28 C 442.63 216.31 444.99 214.96 447.29 213.54 C 452.52 210.13 456.85 205.56 460.92 200.87 M 384.23 240.14 C 381.95 241.57 379.47 243.35 378.96 246.19 C 378.56 248.07 378.25 250.79 380.35 251.81 C 383.64 252.13 386.84 250.98 389.93 249.98 C 392.75 248.92 395.71 247.99 398.19 246.22 C 399.78 242.15 400.21 237.74 401.14 233.49 C 394.87 233.63 389.44 237.02 384.23 240.14 Z" />
<path fill="#0b065a" opacity="1.00" d=" M 542.66 260.61 C 545.80 259.74 548.96 258.82 552.20 258.37 C 555.07 257.94 557.87 258.90 560.62 259.61 C 559.70 260.73 558.80 261.86 557.85 262.95 C 532.58 276.64 507.18 290.09 481.88 303.72 C 475.62 307.13 469.08 310.07 463.15 314.07 C 455.44 317.53 448.10 321.72 440.65 325.69 C 434.84 328.82 428.98 331.85 423.32 335.25 C 423.30 340.16 423.64 345.09 423.27 349.99 C 423.35 352.51 421.06 353.98 419.34 355.38 C 414.32 358.98 409.31 362.60 404.18 366.05 C 396.03 369.88 389.48 376.18 381.90 380.94 C 381.87 376.18 381.64 371.41 380.94 366.70 C 376.51 368.46 372.34 370.80 368.38 373.45 C 344.49 388.15 320.76 403.11 297.00 418.02 C 292.62 420.55 288.56 423.55 284.70 426.81 C 272.90 434.91 260.27 441.76 248.56 450.00 L 246.41 450.00 C 240.24 447.82 233.96 445.98 227.67 444.18 C 167.78 426.40 107.90 408.62 48.03 390.81 C 42.88 389.34 37.73 387.89 32.70 386.06 C 35.75 384.19 38.89 382.46 42.10 380.90 C 49.15 381.56 55.74 384.33 62.49 386.30 C 89.41 394.37 116.33 402.46 143.25 410.54 C 175.25 420.37 207.39 429.71 239.37 439.57 C 241.87 440.19 244.60 440.99 247.12 440.03 C 249.21 439.06 250.70 437.23 252.35 435.68 C 257.79 430.87 264.02 427.09 269.92 422.90 C 294.02 405.87 318.33 389.14 343.06 373.06 C 350.03 368.78 356.68 363.70 364.54 361.15 C 369.20 360.48 373.93 359.58 378.65 360.10 C 383.33 361.08 386.66 364.84 390.13 367.85 C 397.20 362.69 404.63 358.01 411.33 352.37 C 412.43 351.51 413.51 350.62 414.60 349.74 C 414.50 344.44 414.53 338.86 417.11 334.06 C 421.68 325.39 429.14 318.69 436.80 312.77 C 447.47 304.45 459.22 297.66 471.12 291.29 C 491.16 281.08 511.84 272.19 532.77 263.96 C 536.02 262.70 539.34 261.66 542.66 260.61 Z" />
<path fill="#0b065a" opacity="1.00" d=" M 102.83 325.20 C 104.22 326.44 105.66 327.62 107.08 328.83 C 109.12 328.29 111.17 327.75 113.21 327.18 L 114.15 326.89 C 114.13 330.60 114.35 334.31 114.53 338.02 C 110.58 334.15 106.69 330.19 103.29 325.83 L 102.83 325.20 Z" />
<path fill="#0b065a" opacity="1.00" d=" M 365.72 376.36 C 370.37 373.29 375.02 370.17 380.10 367.83 C 380.46 372.29 380.44 376.77 380.10 381.24 C 375.12 380.22 370.25 378.67 365.72 376.36 Z" />
</g>
<g id="#4e4c67ff">
<path fill="#4e4c67" opacity="1.00" d=" M 397.64 130.23 C 406.28 133.57 414.53 137.92 422.43 142.72 C 424.68 143.91 423.12 145.86 421.80 147.06 C 421.26 146.52 420.19 145.45 419.66 144.91 C 419.99 144.41 420.66 143.41 420.99 142.90 C 413.31 138.48 404.87 135.43 397.64 130.23 Z" />
<path fill="#4e4c67" opacity="1.00" d=" M 42.83 135.95 C 44.13 135.66 45.68 135.21 46.89 136.05 C 49.13 138.18 49.95 141.35 51.96 143.66 C 53.03 144.39 54.27 144.80 55.45 145.30 C 57.56 150.08 59.36 155.02 60.31 160.17 C 61.21 164.95 63.09 169.46 64.93 173.95 C 71.07 189.47 77.08 205.05 83.27 220.56 C 84.09 222.81 84.85 225.08 85.64 227.34 C 89.43 225.27 93.48 223.52 97.86 223.34 C 94.76 224.11 91.79 225.33 88.97 226.82 C 88.36 227.15 87.13 227.80 86.51 228.13 C 88.49 235.22 91.54 241.93 94.12 248.81 C 97.52 257.59 101.18 266.27 104.34 275.14 C 109.79 274.81 115.16 273.73 120.41 272.26 C 126.29 270.68 132.51 269.27 137.38 265.41 C 138.90 264.42 138.49 262.40 138.49 260.86 C 137.58 252.24 135.16 243.75 131.14 236.05 C 131.60 236.29 132.52 236.75 132.98 236.99 C 134.27 239.90 135.60 242.80 136.99 245.68 C 138.60 244.40 140.38 243.26 141.64 241.61 C 141.89 240.47 141.88 239.29 141.87 238.14 C 141.45 234.76 141.06 231.35 140.03 228.09 C 139.36 225.57 136.90 224.22 134.72 223.18 C 129.49 220.90 123.74 220.26 118.14 219.54 C 116.53 222.08 115.10 224.79 112.98 226.96 C 111.02 228.97 107.92 229.07 105.32 228.65 C 102.24 228.22 100.45 225.43 98.62 223.23 C 98.85 220.14 99.00 217.03 98.80 213.92 C 99.48 217.37 99.45 220.95 100.55 224.31 C 101.65 226.70 104.59 227.46 107.00 227.53 C 109.88 227.72 112.34 226.00 114.47 224.30 C 114.87 221.90 115.12 219.49 115.37 217.08 C 113.11 217.15 110.84 217.22 108.58 217.29 C 114.81 214.65 121.23 212.37 127.03 208.83 C 127.19 206.91 127.36 204.98 127.52 203.06 C 126.35 203.46 125.18 203.85 124.02 204.25 C 124.15 203.65 124.42 202.45 124.55 201.85 C 124.04 201.85 123.03 201.86 122.52 201.87 C 122.48 202.60 122.39 204.06 122.34 204.80 C 121.20 203.65 120.06 202.50 118.92 201.35 C 121.57 200.99 124.23 200.65 126.89 200.37 C 127.41 199.48 127.93 198.58 128.44 197.68 L 128.57 198.46 C 128.81 199.79 129.07 201.11 129.34 202.43 C 134.12 205.37 139.09 208.08 143.50 211.58 C 146.53 213.81 146.87 217.79 147.75 221.15 C 148.46 224.69 150.01 227.97 151.65 231.17 C 154.53 236.91 156.62 243.38 155.87 249.87 C 155.65 252.55 153.46 254.74 150.84 255.18 C 146.53 256.07 142.44 253.93 138.61 252.25 C 139.10 255.17 139.70 258.09 139.79 261.06 C 139.87 264.94 136.59 268.26 137.53 272.23 C 138.51 277.90 139.67 283.54 140.31 289.27 C 148.84 288.05 157.20 285.75 165.80 284.95 C 186.44 282.30 207.34 283.08 227.99 285.22 C 228.18 278.75 228.15 272.18 229.97 265.91 C 233.18 254.06 240.41 243.62 249.42 235.42 C 257.10 228.49 265.79 222.70 275.06 218.10 C 289.58 210.51 305.16 205.13 321.02 201.13 C 328.37 199.21 335.89 198.05 343.25 196.18 C 342.04 191.23 340.66 186.17 341.16 181.03 C 341.60 176.30 344.57 171.98 348.57 169.52 C 350.78 168.06 353.52 168.84 355.83 169.58 C 356.67 170.04 357.51 170.52 358.35 171.01 C 355.45 170.83 352.54 170.12 349.65 170.56 C 344.36 173.06 341.98 179.40 342.50 184.98 C 342.94 190.30 343.92 196.27 347.99 200.10 C 352.34 203.26 358.12 199.05 359.65 194.72 C 360.36 188.30 353.87 185.01 350.34 180.75 C 349.96 180.33 349.21 179.48 348.83 179.06 C 347.43 179.59 346.02 180.12 344.61 180.64 C 345.62 179.76 346.57 178.80 347.71 178.09 C 350.19 177.64 352.71 178.19 355.19 178.44 C 355.12 177.32 355.05 176.21 354.99 175.10 C 355.23 175.45 355.71 176.16 355.95 176.51 C 357.46 174.48 359.13 172.53 361.32 171.20 C 361.96 171.24 363.24 171.30 363.87 171.34 C 365.99 174.15 368.14 177.27 371.56 178.58 C 377.60 180.93 384.67 179.53 389.85 175.80 C 392.76 173.74 394.89 170.83 397.03 168.03 C 396.09 167.45 395.15 166.87 394.22 166.30 C 396.51 165.49 398.80 164.67 401.09 163.85 C 401.14 163.06 401.23 161.50 401.28 160.71 C 399.80 161.33 398.32 161.96 396.86 162.59 C 397.27 161.25 397.69 159.91 398.11 158.58 C 399.25 158.94 400.40 159.31 401.55 159.67 C 400.93 158.72 400.31 157.76 399.69 156.81 C 390.34 162.00 378.85 164.46 368.55 160.68 L 368.39 159.84 C 374.24 161.46 380.49 162.01 386.46 160.68 C 391.15 159.62 395.51 157.54 399.93 155.71 C 400.08 154.08 400.23 152.45 400.38 150.82 C 395.91 152.03 391.56 153.61 387.21 155.16 C 385.21 155.75 383.00 156.66 380.94 155.79 C 377.76 154.54 374.96 152.55 371.98 150.91 C 368.16 148.69 364.05 147.05 359.90 145.55 C 359.68 149.04 359.46 152.54 359.51 156.04 C 359.00 152.30 358.55 148.56 358.26 144.80 C 357.74 144.40 356.70 143.61 356.18 143.21 C 355.80 143.10 355.03 142.89 354.65 142.78 L 354.32 143.50 L 354.86 144.09 L 355.71 143.92 L 356.18 143.21 C 356.22 144.08 356.29 145.82 356.33 146.69 C 354.71 144.89 353.13 143.06 351.59 141.20 C 361.83 144.11 370.80 150.09 380.21 154.86 C 381.94 155.81 383.96 155.61 385.78 155.06 C 396.23 152.02 406.07 146.79 416.95 145.29 C 416.74 146.14 416.54 146.98 416.33 147.83 C 413.86 148.65 411.39 149.49 408.91 150.29 C 409.61 149.33 410.31 148.37 411.01 147.41 C 411.36 147.65 412.05 148.12 412.40 148.36 L 413.24 148.13 L 413.60 147.45 L 413.24 146.81 L 412.45 146.67 C 412.09 146.86 411.37 147.23 411.01 147.41 C 407.97 148.70 404.50 149.18 401.88 151.29 C 401.26 154.19 402.13 157.10 402.71 159.93 C 411.03 159.71 419.51 160.55 427.23 163.89 C 440.02 169.27 451.85 177.56 460.34 188.63 C 463.73 193.78 466.26 199.58 471.12 203.62 C 472.23 204.93 473.24 206.32 474.28 207.69 C 470.89 204.58 467.33 201.66 463.92 198.56 C 462.91 199.32 461.89 200.07 460.92 200.87 C 461.87 199.28 462.73 197.64 463.62 196.01 C 458.36 186.13 449.92 178.36 440.63 172.31 C 431.45 166.25 420.92 161.94 409.89 161.04 C 407.66 161.00 405.00 160.62 403.23 162.32 C 398.99 166.12 396.67 171.57 392.43 175.39 C 386.94 180.29 378.87 182.10 371.81 180.05 C 367.71 178.75 365.15 175.04 362.45 171.95 C 359.39 175.37 356.29 178.78 352.72 181.69 C 355.38 183.64 357.96 185.76 359.84 188.51 C 360.30 190.20 360.67 191.92 361.06 193.64 C 363.86 191.93 366.67 190.26 369.50 188.59 C 369.38 187.61 369.27 186.64 369.15 185.66 C 372.93 189.34 377.80 191.44 382.71 193.16 C 387.79 196.97 392.70 201.01 397.86 204.73 C 396.84 206.74 395.81 208.74 394.83 210.77 C 394.98 210.35 395.26 209.51 395.41 209.09 C 395.41 203.51 390.36 200.47 386.44 197.50 C 381.61 194.05 376.21 190.44 370.03 190.61 C 365.58 190.89 362.32 194.40 359.65 197.62 C 349.08 211.01 342.83 227.09 333.70 241.39 C 328.92 243.83 324.68 247.15 320.39 250.34 C 318.16 252.12 315.64 253.94 314.67 256.76 C 315.24 257.80 315.88 258.81 316.59 259.78 C 321.95 260.91 327.38 259.58 332.36 257.55 C 336.05 256.00 340.21 254.86 343.02 251.84 C 343.38 249.16 343.12 246.45 343.02 243.77 C 340.83 243.82 338.64 243.88 336.46 243.95 C 335.97 243.49 334.98 242.56 334.49 242.10 C 335.03 242.14 336.12 242.23 336.66 242.27 C 339.66 242.49 342.77 242.05 345.26 240.25 C 351.22 236.24 356.82 231.69 363.10 228.15 C 359.60 231.33 355.99 234.42 351.99 236.96 C 349.43 238.72 346.55 240.18 344.55 242.62 C 343.67 245.99 344.24 249.52 344.42 252.95 C 337.83 256.67 330.84 259.96 323.33 261.28 C 319.61 261.99 315.31 260.96 313.10 257.68 C 312.95 255.39 314.70 253.66 316.20 252.19 C 321.11 247.69 327.07 244.52 332.02 240.07 C 336.04 236.45 338.22 231.39 340.73 226.72 C 344.87 218.55 349.39 210.59 354.24 202.82 C 350.17 202.72 346.56 200.83 343.74 197.97 C 329.12 200.04 314.81 203.92 300.84 208.65 C 288.17 212.89 275.90 218.43 264.57 225.52 C 255.22 231.58 246.37 238.76 239.96 247.98 C 232.22 258.83 228.23 272.48 229.89 285.80 C 269.01 297.11 308.08 308.60 347.19 319.95 C 353.33 321.73 359.65 323.11 365.41 325.99 C 358.45 325.12 351.84 322.73 345.15 320.78 C 312.31 311.28 279.52 301.64 246.69 292.13 C 239.58 290.11 232.59 287.52 225.24 286.52 C 194.53 282.88 162.98 284.42 133.19 293.04 C 126.76 294.85 120.53 297.25 114.23 299.46 C 113.54 308.60 114.59 317.74 114.15 326.89 L 113.21 327.18 C 113.01 318.78 112.87 310.37 112.74 301.97 C 105.22 304.15 97.76 306.86 90.89 310.65 C 95.00 315.39 99.36 319.94 102.83 325.20 L 103.29 325.83 C 98.64 321.66 94.62 316.88 90.66 312.08 C 82.52 316.86 75.16 322.87 68.20 329.21 C 63.49 333.48 59.15 338.15 55.42 343.30 C 58.81 344.81 62.27 346.18 65.82 347.31 C 88.83 354.76 111.59 362.96 134.55 370.57 C 145.28 374.06 155.85 378.01 166.58 381.52 C 177.89 385.43 189.36 388.90 200.53 393.20 C 200.53 394.25 200.54 395.30 200.54 396.36 C 152.67 382.28 104.88 367.94 56.98 353.96 C 56.59 354.57 55.82 355.81 55.43 356.43 C 58.35 357.68 61.28 358.88 64.31 359.84 C 101.55 371.12 138.66 382.84 175.91 394.11 C 178.54 394.92 181.02 396.13 183.41 397.49 C 178.62 396.64 173.99 395.10 169.37 393.61 C 135.96 383.35 102.60 372.94 69.18 362.70 C 64.53 361.34 59.98 359.43 55.15 358.82 C 53.54 360.54 52.59 362.73 51.63 364.85 C 49.46 369.83 47.19 374.78 45.15 379.82 C 106.43 398.25 167.70 416.70 228.98 435.15 C 234.05 436.75 239.16 438.25 244.35 439.44 C 244.32 429.29 243.12 419.19 242.83 409.05 C 235.22 406.47 227.50 404.29 219.77 402.11 C 214.94 400.77 210.45 398.38 205.52 397.36 C 205.51 396.56 205.49 395.76 205.49 394.96 C 218.11 398.71 230.40 403.50 242.97 407.40 C 247.82 401.10 252.39 394.57 257.57 388.53 C 267.94 375.98 279.61 364.50 292.32 354.33 C 306.97 342.80 323.56 333.25 341.82 328.92 C 348.74 327.22 355.89 327.08 362.96 326.63 C 370.33 325.90 377.45 328.54 384.32 330.82 C 393.07 334.10 397.63 342.95 400.93 351.10 C 402.63 344.01 404.32 336.87 407.30 330.19 C 415.85 310.33 431.26 293.94 449.46 282.49 C 468.86 270.42 488.84 259.22 509.59 249.63 C 513.70 247.75 517.93 246.12 522.12 244.43 C 514.83 241.82 507.27 240.14 499.83 238.04 C 493.69 236.33 487.55 234.59 481.32 233.23 C 479.82 236.58 478.39 240.10 475.77 242.75 C 472.05 246.51 466.97 248.73 461.78 249.51 C 455.06 250.51 448.23 249.97 441.56 248.93 C 442.77 248.77 443.99 248.62 445.21 248.46 C 454.26 248.43 464.25 249.57 472.14 244.18 C 478.25 240.17 481.54 232.02 479.18 224.98 C 478.26 221.87 476.17 218.60 472.67 218.20 C 463.71 216.62 454.61 219.51 446.83 223.84 C 455.57 215.51 468.99 215.81 479.87 219.03 C 479.03 216.58 478.22 214.11 477.23 211.72 C 479.10 214.56 481.30 217.49 481.48 221.02 C 481.61 224.58 481.16 228.14 481.04 231.70 C 493.49 235.06 505.94 238.41 518.39 241.73 C 528.96 244.50 538.40 250.20 548.23 254.78 C 553.25 257.10 558.71 258.12 564.06 259.40 C 561.99 260.60 559.91 261.76 557.85 262.95 C 558.80 261.86 559.70 260.73 560.62 259.61 C 557.87 258.90 555.07 257.94 552.20 258.37 C 548.96 258.82 545.80 259.74 542.66 260.61 C 545.28 259.59 547.80 258.33 550.33 257.08 C 543.88 253.50 537.00 250.78 530.45 247.40 C 528.29 246.47 526.02 245.04 523.58 245.55 C 520.04 246.32 516.78 247.93 513.47 249.34 C 491.67 259.16 470.73 270.79 450.38 283.33 C 439.55 290.17 429.64 298.60 421.70 308.68 C 410.51 322.67 403.31 339.90 401.86 357.81 C 405.02 356.00 408.24 354.29 411.33 352.37 C 404.63 358.01 397.20 362.69 390.13 367.85 C 386.66 364.84 383.33 361.08 378.65 360.10 C 373.93 359.58 369.20 360.48 364.54 361.15 C 369.38 359.40 374.64 358.09 379.77 359.31 C 384.05 360.26 387.15 363.60 390.25 366.45 C 393.79 364.10 397.20 361.55 400.52 358.89 C 399.64 350.39 396.55 341.75 390.12 335.86 C 386.06 332.04 380.45 330.73 375.16 329.68 C 360.64 327.09 345.45 328.34 331.58 333.38 C 311.11 340.67 293.29 353.84 277.68 368.70 C 266.20 379.64 255.96 391.81 246.54 404.55 C 244.48 407.08 243.87 410.37 244.22 413.56 C 244.87 422.08 245.48 430.60 246.00 439.12 C 248.13 438.00 250.27 436.89 252.35 435.68 C 250.70 437.23 249.21 439.06 247.12 440.03 C 244.60 440.99 241.87 440.19 239.37 439.57 C 207.39 429.71 175.25 420.37 143.25 410.54 C 116.33 402.46 89.41 394.37 62.49 386.30 C 55.74 384.33 49.15 381.56 42.10 380.90 C 48.30 373.01 50.41 362.83 55.37 354.23 C 57.07 351.52 59.70 349.62 62.09 347.59 C 59.32 346.49 56.55 345.40 53.78 344.31 C 56.78 339.06 60.94 334.63 65.18 330.37 C 69.76 325.79 74.86 321.79 79.88 317.71 C 78.93 309.16 78.03 300.59 78.11 291.97 C 78.22 285.28 76.58 278.57 73.29 272.75 C 71.05 269.53 67.17 268.11 64.05 265.91 C 61.18 263.90 57.61 262.10 56.28 258.65 C 55.21 253.08 59.95 248.87 61.53 243.94 C 61.53 242.45 60.99 241.04 60.52 239.65 C 52.10 218.62 43.90 197.49 35.64 176.39 C 32.80 170.28 29.14 164.60 26.24 158.51 C 26.89 155.99 27.64 153.37 27.14 150.75 C 26.87 148.35 26.06 145.95 26.42 143.53 C 27.74 141.73 29.92 140.90 31.88 140.01 C 35.49 138.56 39.08 137.02 42.83 135.95 M 38.75 138.65 C 35.22 140.17 31.36 141.10 28.17 143.32 C 25.76 146.50 28.82 150.30 29.93 153.40 C 35.65 151.42 41.28 149.20 46.93 147.03 C 48.06 146.44 49.53 146.13 50.21 144.94 C 49.61 142.17 48.84 139.06 46.61 137.14 C 43.91 136.40 41.26 137.81 38.75 138.65 M 36.50 152.29 C 33.27 153.41 30.06 154.59 26.99 156.10 C 28.58 160.21 30.48 164.19 32.13 168.28 C 33.46 168.29 34.78 168.26 36.11 168.18 C 35.58 168.34 34.54 168.66 34.02 168.82 C 44.48 195.69 55.18 222.46 65.54 249.37 C 66.59 252.22 68.62 254.51 70.73 256.62 C 72.09 255.63 73.45 254.65 74.81 253.66 L 75.19 254.37 L 74.93 253.33 C 77.03 253.24 79.13 253.15 81.23 253.10 C 80.18 255.10 79.09 257.08 78.00 259.05 C 80.96 260.62 84.65 261.48 86.65 264.37 C 86.57 265.85 86.20 267.29 85.88 268.74 C 85.16 268.85 83.72 269.06 83.00 269.17 C 83.67 267.82 84.33 266.47 85.00 265.12 C 81.85 264.71 78.70 264.31 75.54 264.05 C 77.79 265.19 80.05 266.29 82.30 267.41 C 79.57 267.03 76.88 266.50 74.20 265.87 C 74.61 264.67 75.02 263.48 75.43 262.29 C 78.40 262.83 81.38 263.35 84.39 263.72 C 81.23 261.93 77.80 260.74 74.38 259.57 C 75.93 258.01 77.29 256.29 78.70 254.61 C 75.84 255.18 73.15 256.32 70.65 257.80 C 66.45 255.10 64.25 250.55 62.49 246.07 C 60.07 249.57 57.18 253.38 57.59 257.89 C 57.68 259.64 59.21 260.67 60.44 261.66 C 64.94 264.80 69.12 268.88 74.82 269.59 C 74.68 268.92 74.40 267.57 74.26 266.90 C 76.77 267.69 79.29 268.44 81.82 269.17 C 86.56 281.28 91.11 293.47 96.09 305.48 C 99.18 305.35 103.84 305.59 104.80 301.78 C 104.47 298.20 102.63 294.99 101.39 291.67 C 84.44 248.80 67.77 205.82 50.82 162.95 C 47.76 163.92 44.74 165.01 41.73 166.14 C 43.22 164.34 45.48 163.50 47.59 162.67 C 51.40 161.27 55.27 160.07 59.12 158.78 C 57.96 154.14 56.09 149.73 53.97 145.45 C 48.00 147.37 42.42 150.26 36.50 152.29 M 52.07 162.06 C 54.37 168.89 57.32 175.48 59.78 182.25 C 72.16 213.53 84.35 244.89 96.70 276.19 C 100.21 284.90 103.20 293.82 107.19 302.32 C 109.00 301.64 112.50 301.74 112.20 298.98 C 111.67 295.29 109.87 291.96 108.57 288.52 C 91.43 245.76 75.07 202.69 58.00 159.90 C 56.03 160.62 54.05 161.34 52.07 162.06 M 124.67 211.59 C 121.74 213.43 117.36 213.98 116.34 217.82 C 121.80 218.60 127.22 219.62 132.61 220.85 C 133.14 217.86 134.36 215.06 136.20 212.65 C 134.10 210.41 131.93 208.24 129.78 206.05 C 128.38 208.14 127.06 210.50 124.67 211.59 M 131.72 205.78 C 133.71 208.23 136.03 210.39 138.52 212.32 C 136.99 214.20 135.33 216.01 134.22 218.18 C 134.63 222.23 138.98 223.78 141.29 226.59 C 142.58 231.89 142.06 237.59 144.23 242.69 C 145.60 245.53 147.91 247.76 149.80 250.26 C 146.82 248.46 144.46 245.87 142.51 243.01 C 140.70 244.36 138.90 245.73 137.11 247.11 C 138.61 249.15 140.02 251.47 142.38 252.63 C 145.19 254.06 148.55 254.48 151.62 253.72 C 154.13 252.57 154.94 249.57 154.80 247.03 C 154.44 239.88 151.48 233.18 148.01 227.02 C 145.72 223.01 146.47 217.98 144.11 214.02 C 140.66 210.41 136.11 208.05 131.72 205.78 M 128.32 271.05 C 120.85 273.89 112.89 275.03 105.01 276.09 C 107.72 283.67 110.48 291.25 113.88 298.55 C 114.94 298.04 116.01 297.54 117.07 297.03 C 124.32 294.42 131.66 292.06 139.05 289.86 C 138.07 283.01 136.98 276.17 135.54 269.40 L 136.23 268.90 C 133.52 269.33 130.88 270.06 128.32 271.05 M 74.12 270.87 C 78.25 281.92 82.68 292.85 86.97 303.84 C 87.69 305.44 88.26 307.23 89.58 308.45 C 90.98 309.57 92.68 308.46 93.96 307.73 C 94.80 305.49 93.68 303.20 92.98 301.09 C 88.85 290.85 84.82 280.56 80.77 270.29 C 78.55 270.47 76.33 270.66 74.12 270.87 M 79.18 287.74 C 79.19 297.36 78.85 307.22 81.62 316.54 C 84.21 314.88 86.71 313.11 89.14 311.23 C 85.35 303.60 82.94 295.38 79.18 287.74 M 57.97 352.73 C 97.42 364.43 136.88 376.08 176.33 387.77 C 182.63 389.59 188.75 392.12 195.28 393.07 C 190.56 390.62 185.40 389.29 180.41 387.57 C 166.41 382.83 152.40 378.11 138.39 373.40 C 122.33 367.62 106.07 362.43 89.92 356.89 C 81.28 353.76 72.56 350.89 63.87 347.90 C 61.86 349.45 59.88 351.05 57.97 352.73 Z" />
<path fill="#4e4c67" opacity="1.00" d=" M 349.33 142.00 L 350.05 141.59 L 350.76 142.02 L 350.75 142.84 L 350.03 143.24 L 349.32 142.82 L 349.33 142.00 Z" />
<path fill="#4e4c67" opacity="1.00" d=" M 418.23 145.98 L 418.95 145.57 L 419.67 145.98 L 419.67 146.80 L 418.95 147.21 L 418.24 146.80 L 418.23 145.98 Z" />
<path fill="#4e4c67" opacity="1.00" d=" M 360.13 159.92 C 360.54 159.85 361.36 159.70 361.77 159.63 C 362.10 162.81 362.53 165.99 363.05 169.15 C 362.43 169.21 361.20 169.33 360.58 169.39 L 360.59 168.59 C 360.64 165.69 360.46 162.80 360.13 159.92 Z" />
<path fill="#4e4c67" opacity="1.00" d=" M 375.82 166.52 C 377.21 165.76 378.57 164.90 380.10 164.47 C 381.41 164.44 382.40 165.56 383.52 166.11 C 380.96 166.35 378.39 166.49 375.82 166.52 Z" />
<path fill="#4e4c67" opacity="1.00" d=" M 369.78 170.71 C 370.23 168.77 370.71 166.84 371.22 164.92 C 371.62 167.31 372.04 169.69 372.54 172.06 C 371.62 171.61 370.70 171.16 369.78 170.71 Z" />
<path fill="#4e4c67" opacity="1.00" d=" M 103.03 173.01 C 106.52 172.99 110.27 172.72 113.39 174.60 C 116.12 175.90 117.89 178.43 119.33 180.99 C 116.76 179.09 114.45 176.82 111.64 175.28 C 109.21 174.01 106.39 174.47 103.77 174.51 C 105.55 176.30 107.48 177.97 108.99 180.00 C 110.31 181.81 110.66 184.10 111.26 186.22 C 109.71 183.94 108.40 181.50 106.73 179.31 C 105.42 177.55 103.13 177.08 101.25 176.18 C 101.84 175.12 102.44 174.06 103.03 173.01 Z" />
<path fill="#4e4c67" opacity="1.00" d=" M 369.76 174.77 C 372.64 174.20 375.56 173.77 378.51 173.56 C 377.28 174.34 376.12 175.31 374.71 175.73 C 373.00 175.96 371.37 175.20 369.76 174.77 Z" />
<path fill="#4e4c67" opacity="1.00" d=" M 85.88 191.95 C 86.20 185.57 90.21 179.56 96.12 177.06 C 93.21 180.55 89.33 183.51 87.92 188.00 C 86.45 192.34 87.47 196.96 87.55 201.42 C 85.09 198.92 85.86 195.11 85.88 191.95 Z" />
<path fill="#4e4c67" opacity="1.00" d=" M 84.38 182.35 C 85.59 180.17 87.90 179.01 89.96 177.78 C 86.57 181.37 84.14 185.66 82.85 190.43 C 82.95 187.69 82.75 184.72 84.38 182.35 Z" />
<path fill="#4e4c67" opacity="1.00" d=" M 355.20 186.44 C 356.78 188.39 357.67 190.75 357.82 193.25 C 355.92 191.47 355.46 188.91 355.20 186.44 Z" />
<path fill="#4e4c67" opacity="1.00" d=" M 120.13 189.58 C 121.42 188.51 123.02 190.74 121.73 191.71 C 120.44 192.78 118.83 190.54 120.13 189.58 Z" />
<path fill="#4e4c67" opacity="1.00" d=" M 534.37 278.37 C 544.59 272.84 554.66 267.02 565.00 261.71 L 565.00 262.62 C 560.95 265.52 556.42 267.63 552.08 270.05 C 546.06 273.38 540.04 276.72 533.99 279.99 C 528.30 283.04 522.89 286.70 516.75 288.82 C 522.04 284.42 528.45 281.78 534.37 278.37 Z" />
<path fill="#4e4c67" opacity="1.00" d=" M 496.96 298.97 C 502.65 295.94 508.24 292.69 514.24 290.29 C 509.01 294.74 502.61 297.35 496.61 300.53 C 485.17 306.75 473.52 312.60 462.12 318.91 C 452.94 323.39 444.22 328.81 434.77 332.72 C 443.38 325.79 454.28 322.69 463.22 316.26 C 467.58 314.38 471.92 312.43 476.05 310.07 C 482.91 306.17 490.03 302.75 496.96 298.97 Z" />
<path fill="#4e4c67" opacity="1.00" d=" M 339.09 346.20 C 347.87 341.86 357.21 338.16 367.07 337.39 C 376.07 336.74 385.86 339.15 392.11 346.04 C 387.51 343.90 383.30 340.83 378.31 339.65 C 371.21 337.89 363.73 338.75 356.75 340.65 C 346.76 343.40 337.45 348.18 328.71 353.66 C 303.78 369.36 282.44 389.96 262.24 411.23 C 258.83 414.86 255.90 418.98 251.86 421.98 C 255.12 416.70 259.67 412.41 263.80 407.84 C 271.75 399.76 279.70 391.67 287.92 383.87 C 303.70 369.72 320.22 356.07 339.09 346.20 Z" />
<path fill="#4e4c67" opacity="1.00" d=" M 362.62 353.47 C 367.30 350.12 373.38 350.13 378.89 350.36 C 384.91 350.69 390.99 353.98 393.26 359.79 C 390.28 356.97 387.40 353.67 383.25 352.63 C 376.46 350.32 369.44 352.61 362.62 353.47 Z" />
<path fill="#4e4c67" opacity="1.00" d=" M 331.46 366.50 C 339.13 361.90 346.80 356.98 355.45 354.45 C 352.95 356.40 350.16 357.91 347.28 359.20 C 340.14 362.44 333.44 366.53 326.93 370.88 C 322.92 373.55 319.20 376.65 315.00 379.04 C 319.43 373.62 325.81 370.43 331.46 366.50 Z" />
<path fill="#4e4c67" opacity="1.00" d=" M 95.68 382.46 C 97.87 382.82 100.05 383.27 102.19 383.88 C 132.36 392.78 162.58 401.50 192.76 410.36 C 196.97 411.56 201.36 412.42 205.11 414.79 C 200.69 414.34 196.46 412.95 192.24 411.65 C 163.88 403.37 135.51 395.12 107.16 386.81 C 103.23 385.69 99.09 384.87 95.68 382.46 Z" />
<path fill="#4e4c67" opacity="1.00" d=" M 31.87 391.25 C 37.27 391.99 42.40 393.90 47.61 395.43 C 70.18 402.22 92.76 408.98 115.32 415.79 C 120.04 417.26 125.06 418.12 129.29 420.84 C 123.76 420.19 118.54 418.15 113.23 416.61 C 91.22 409.99 69.21 403.41 47.24 396.67 C 42.06 395.04 36.54 394.18 31.87 391.25 Z" />
<path fill="#4e4c67" opacity="1.00" d=" M 202.25 394.20 L 202.96 393.80 L 203.68 394.21 L 203.67 395.04 L 202.95 395.44 L 202.24 395.03 L 202.25 394.20 Z" />
<path fill="#4e4c67" opacity="1.00" d=" M 202.33 395.95 L 203.05 395.54 L 203.77 395.95 L 203.77 396.77 L 203.05 397.19 L 202.33 396.77 L 202.33 395.95 Z" />
<path fill="#4e4c67" opacity="1.00" d=" M 185.69 397.45 C 195.45 399.57 204.87 403.02 214.54 405.53 C 217.24 406.24 220.12 406.79 222.26 408.73 C 217.85 408.21 213.63 406.76 209.38 405.53 C 203.44 403.79 197.50 402.08 191.56 400.40 C 189.40 399.86 187.45 398.77 185.69 397.45 Z" />
<path fill="#4e4c67" opacity="1.00" d=" M 131.64 421.42 C 137.38 422.15 142.79 424.27 148.32 425.86 C 159.34 429.13 170.38 432.34 181.38 435.69 C 186.34 437.25 191.63 438.03 196.12 440.81 C 193.86 440.51 191.60 440.13 189.40 439.51 C 175.07 435.19 160.71 431.01 146.39 426.63 C 141.44 425.01 136.02 424.45 131.64 421.42 Z" />
<path fill="#4e4c67" opacity="1.00" d=" M 198.55 441.42 C 204.55 442.34 210.31 444.32 216.14 445.98 C 219.29 446.85 222.18 448.43 225.03 450.00 L 222.88 450.00 C 214.97 446.53 206.16 445.57 198.55 441.42 Z" />
</g>
<g id="#85827fff">
<path fill="#85827f" opacity="1.00" d=" M 341.79 138.84 C 343.81 139.32 345.85 139.76 347.87 140.24 C 345.75 141.92 343.53 140.14 341.79 138.84 Z" />
</g>
<g id="#c3c1beff">
<path fill="#c3c1be" opacity="1.00" d=" M 354.32 143.50 L 354.65 142.78 C 355.03 142.89 355.80 143.10 356.18 143.21 L 355.71 143.92 L 354.86 144.09 L 354.32 143.50 Z" />
</g>
<g id="#aeacaaff">
<path fill="#aeacaa" opacity="1.00" d=" M 411.01 147.41 C 411.37 147.23 412.09 146.86 412.45 146.67 L 413.24 146.81 L 413.60 147.45 L 413.24 148.13 L 412.40 148.36 C 412.05 148.12 411.36 147.65 411.01 147.41 Z" />
</g>
<g id="#0502aaff">
<path fill="#0502aa" opacity="1.00" d=" M 356.27 162.38 C 356.93 160.47 358.44 159.02 359.65 157.44 C 362.58 158.18 365.48 159.01 368.39 159.84 L 368.55 160.68 C 368.81 162.87 369.28 165.19 368.53 167.33 C 367.35 169.04 365.51 170.11 363.87 171.34 C 363.24 171.30 361.96 171.24 361.32 171.20 C 360.32 171.15 359.33 171.09 358.35 171.01 C 357.51 170.52 356.67 170.04 355.83 169.58 C 355.88 167.18 355.75 164.74 356.27 162.38 M 357.44 165.42 C 358.36 166.59 359.49 167.58 360.59 168.59 L 360.58 169.39 C 361.20 169.33 362.43 169.21 363.05 169.15 C 365.42 168.18 367.70 166.08 366.93 163.25 C 366.63 160.65 363.77 160.27 361.77 159.63 C 361.36 159.70 360.54 159.85 360.13 159.92 C 358.81 161.48 357.03 163.16 357.44 165.42 Z" />
<path fill="#0502aa" opacity="1.00" d=" M 344.61 180.64 C 346.02 180.12 347.43 179.59 348.83 179.06 C 349.21 179.48 349.96 180.33 350.34 180.75 C 349.71 181.68 349.09 182.61 348.48 183.54 C 347.91 183.68 346.76 183.95 346.19 184.09 C 345.66 182.94 345.13 181.79 344.61 180.64 Z" />
<path fill="#0502aa" opacity="1.00" d=" M 336.46 243.95 C 338.64 243.88 340.83 243.82 343.02 243.77 C 343.12 246.45 343.38 249.16 343.02 251.84 C 340.21 254.86 336.05 256.00 332.36 257.55 C 327.38 259.58 321.95 260.91 316.59 259.78 C 322.11 258.38 328.11 257.37 332.57 253.53 C 335.43 251.21 335.62 247.26 336.46 243.95 Z" />
<path fill="#0502aa" opacity="1.00" d=" M 128.32 271.05 C 130.88 270.06 133.52 269.33 136.23 268.90 L 135.54 269.40 C 129.31 274.09 122.07 277.10 114.98 280.21 C 114.85 285.89 115.57 291.55 117.07 297.03 C 116.01 297.54 114.94 298.04 113.88 298.55 C 110.48 291.25 107.72 283.67 105.01 276.09 C 112.89 275.03 120.85 273.89 128.32 271.05 Z" />
<path fill="#0502aa" opacity="1.00" d=" M 79.18 287.74 C 82.94 295.38 85.35 303.60 89.14 311.23 C 86.71 313.11 84.21 314.88 81.62 316.54 C 78.85 307.22 79.19 297.36 79.18 287.74 Z" />
</g>
<g id="#fcaa23ff">
<path fill="#fcaa23" opacity="1.00" d=" M 52.07 162.06 C 54.05 161.34 56.03 160.62 58.00 159.90 C 75.07 202.69 91.43 245.76 108.57 288.52 C 109.87 291.96 111.67 295.29 112.20 298.98 C 112.50 301.74 109.00 301.64 107.19 302.32 C 103.20 293.82 100.21 284.90 96.70 276.19 C 84.35 244.89 72.16 213.53 59.78 182.25 C 57.32 175.48 54.37 168.89 52.07 162.06 Z" />
<path fill="#fcaa23" opacity="1.00" d=" M 403.23 162.32 C 405.00 160.62 407.66 161.00 409.89 161.04 C 420.92 161.94 431.45 166.25 440.63 172.31 C 449.92 178.36 458.36 186.13 463.62 196.01 C 462.73 197.64 461.87 199.28 460.92 200.87 C 456.85 205.56 452.52 210.13 447.29 213.54 C 444.22 213.18 440.91 213.32 438.16 211.75 C 434.41 209.24 433.00 204.65 431.93 200.51 C 431.74 199.16 431.54 197.82 431.35 196.47 C 428.71 203.12 428.56 210.42 426.01 217.11 C 419.17 217.35 412.18 216.41 406.13 213.02 C 405.51 212.52 404.92 212.00 404.35 211.47 C 405.49 202.87 406.51 194.12 405.00 185.50 L 404.30 186.09 C 401.36 188.34 398.22 190.53 394.58 191.41 C 390.68 192.34 386.68 192.78 382.71 193.16 C 377.80 191.44 372.93 189.34 369.15 185.66 C 366.15 186.91 363.02 187.85 359.84 188.51 C 357.96 185.76 355.38 183.64 352.72 181.69 C 356.29 178.78 359.39 175.37 362.45 171.95 C 365.15 175.04 367.71 178.75 371.81 180.05 C 378.87 182.10 386.94 180.29 392.43 175.39 C 396.67 171.57 398.99 166.12 403.23 162.32 Z" />
<path fill="#fcaa23" opacity="1.00" d=" M 36.11 168.18 C 37.47 167.81 38.83 167.41 40.19 167.03 C 46.72 182.36 52.42 198.03 58.65 213.48 C 62.70 224.33 67.29 234.97 71.28 245.85 C 72.28 248.53 73.45 251.14 74.81 253.66 C 73.45 254.65 72.09 255.63 70.73 256.62 C 68.62 254.51 66.59 252.22 65.54 249.37 C 55.18 222.46 44.48 195.69 34.02 168.82 C 34.54 168.66 35.58 168.34 36.11 168.18 Z" />
<path fill="#fcaa23" opacity="1.00" d=" M 104.29 193.28 C 106.82 191.87 109.35 190.46 111.71 188.78 C 108.38 192.28 107.33 197.07 106.45 201.66 C 105.25 207.87 101.68 213.54 101.65 219.98 C 101.53 222.20 102.79 224.84 105.26 225.03 C 108.35 225.34 111.42 224.67 114.47 224.30 C 112.34 226.00 109.88 227.72 107.00 227.53 C 104.59 227.46 101.65 226.70 100.55 224.31 C 99.45 220.95 99.48 217.37 98.80 213.92 C 97.91 210.47 95.43 207.61 94.79 204.07 C 95.08 202.50 96.21 201.26 97.42 200.30 C 99.99 200.53 101.95 202.45 104.03 203.79 C 104.09 200.28 104.18 196.78 104.29 193.28 M 95.73 205.18 C 97.44 205.63 99.15 206.08 100.86 206.53 C 100.30 204.90 99.75 203.27 99.19 201.65 C 98.03 202.82 96.88 203.99 95.73 205.18 Z" />
<path fill="#fcaa23" opacity="1.00" d=" M 379.90 203.72 C 380.29 206.24 380.72 208.79 381.78 211.13 C 382.83 213.76 386.17 214.52 388.68 213.81 C 391.33 212.92 393.31 210.84 395.41 209.09 C 395.26 209.51 394.98 210.35 394.83 210.77 C 392.17 217.06 387.66 222.42 381.94 226.15 C 379.84 223.54 377.51 221.03 376.06 217.98 C 375.35 216.80 375.92 215.47 376.29 214.29 C 377.57 210.79 379.14 207.39 379.90 203.72 Z" />
<path fill="#fcaa23" opacity="1.00" d=" M 406.29 214.66 C 410.49 216.94 415.23 217.87 419.89 218.68 C 419.60 220.13 419.32 221.57 418.98 223.01 C 418.55 224.10 418.12 225.19 417.67 226.28 C 417.39 224.58 417.10 222.88 416.82 221.19 C 413.38 219.89 409.89 218.72 406.36 217.70 C 406.36 216.68 406.34 215.67 406.29 214.66 Z" />
<path fill="#fcaa23" opacity="1.00" d=" M 112.98 226.96 C 115.10 224.79 116.53 222.08 118.14 219.54 C 123.74 220.26 129.49 220.90 134.72 223.18 C 136.90 224.22 139.36 225.57 140.03 228.09 C 141.06 231.35 141.45 234.76 141.87 238.14 C 138.84 238.88 135.68 238.64 132.98 236.99 C 132.52 236.75 131.60 236.29 131.14 236.05 C 135.16 243.75 137.58 252.24 138.49 260.86 C 138.49 262.40 138.90 264.42 137.38 265.41 C 132.51 269.27 126.29 270.68 120.41 272.26 C 116.54 270.52 112.47 269.22 108.74 267.18 C 105.56 265.43 103.54 262.27 101.77 259.21 C 96.09 249.02 92.86 237.75 88.97 226.82 C 91.79 225.33 94.76 224.11 97.86 223.34 L 98.62 223.23 C 100.45 225.43 102.24 228.22 105.32 228.65 C 107.92 229.07 111.02 228.97 112.98 226.96 M 110.10 242.20 C 108.39 243.60 108.97 246.27 110.20 247.80 C 111.98 250.43 115.07 251.56 117.87 252.73 C 119.83 250.08 122.39 247.47 122.72 244.03 C 122.96 242.42 122.01 240.95 120.77 240.04 C 117.20 240.66 113.63 241.36 110.10 242.20 Z" />
<path fill="#fcaa23" opacity="1.00" d=" M 345.67 236.67 C 352.04 231.76 359.04 227.71 366.27 224.19 C 365.18 225.48 364.17 226.84 363.10 228.15 C 356.82 231.69 351.22 236.24 345.26 240.25 C 342.77 242.05 339.66 242.49 336.66 242.27 C 339.94 240.89 342.87 238.84 345.67 236.67 Z" />
<path fill="#fcaa23" opacity="1.00" d=" M 74.12 270.87 C 76.33 270.66 78.55 270.47 80.77 270.29 C 84.82 280.56 88.85 290.85 92.98 301.09 C 93.68 303.20 94.80 305.49 93.96 307.73 C 92.68 308.46 90.98 309.57 89.58 308.45 C 88.26 307.23 87.69 305.44 86.97 303.84 C 82.68 292.85 78.25 281.92 74.12 270.87 Z" />
</g>
<g id="#e98b00ff">
<path fill="#e98b00" opacity="1.00" d=" M 359.84 188.51 C 363.02 187.85 366.15 186.91 369.15 185.66 C 369.27 186.64 369.38 187.61 369.50 188.59 C 366.67 190.26 363.86 191.93 361.06 193.64 C 360.67 191.92 360.30 190.20 359.84 188.51 Z" />
<path fill="#e98b00" opacity="1.00" d=" M 394.58 191.41 C 398.22 190.53 401.36 188.34 404.30 186.09 C 403.72 193.41 404.31 200.81 403.12 208.09 C 401.96 207.44 400.80 206.79 399.67 206.11 C 399.22 205.77 398.31 205.08 397.86 204.73 C 392.70 201.01 387.79 196.97 382.71 193.16 C 386.68 192.78 390.68 192.34 394.58 191.41 Z" />
<path fill="#e98b00" opacity="1.00" d=" M 428.03 217.29 C 429.00 211.62 430.62 206.10 431.93 200.51 C 433.00 204.65 434.41 209.24 438.16 211.75 C 440.91 213.32 444.22 213.18 447.29 213.54 C 444.99 214.96 442.63 216.31 440.10 217.28 C 436.10 217.91 432.04 217.70 428.03 217.29 Z" />
<path fill="#e98b00" opacity="1.00" d=" M 86.51 228.13 C 87.13 227.80 88.36 227.15 88.97 226.82 C 92.86 237.75 96.09 249.02 101.77 259.21 C 103.54 262.27 105.56 265.43 108.74 267.18 C 112.47 269.22 116.54 270.52 120.41 272.26 C 115.16 273.73 109.79 274.81 104.34 275.14 C 101.18 266.27 97.52 257.59 94.12 248.81 C 91.54 241.93 88.49 235.22 86.51 228.13 Z" />
<path fill="#e98b00" opacity="1.00" d=" M 132.98 236.99 C 135.68 238.64 138.84 238.88 141.87 238.14 C 141.88 239.29 141.89 240.47 141.64 241.61 C 140.38 243.26 138.60 244.40 136.99 245.68 C 135.60 242.80 134.27 239.90 132.98 236.99 Z" />
</g>
<g id="#84612aff">
<path fill="#84612a" opacity="1.00" d=" M 404.30 186.09 L 405.00 185.50 C 406.51 194.12 405.49 202.87 404.35 211.47 C 402.71 209.75 401.26 207.87 399.67 206.11 C 400.80 206.79 401.96 207.44 403.12 208.09 C 404.31 200.81 403.72 193.41 404.30 186.09 Z" />
<path fill="#84612a" opacity="1.00" d=" M 426.01 217.11 C 428.56 210.42 428.71 203.12 431.35 196.47 C 431.54 197.82 431.74 199.16 431.93 200.51 C 430.62 206.10 429.00 211.62 428.03 217.29 C 432.04 217.70 436.10 217.91 440.10 217.28 C 434.41 219.82 428.25 217.57 422.34 218.06 C 420.90 219.47 419.90 221.24 418.98 223.01 C 419.32 221.57 419.60 220.13 419.89 218.68 C 415.23 217.87 410.49 216.94 406.29 214.66 C 406.25 214.25 406.17 213.43 406.13 213.02 C 412.18 216.41 419.17 217.35 426.01 217.11 Z" />
</g>
<g id="#aa7318ff">
<path fill="#aa7318" opacity="1.00" d=" M 95.73 205.18 C 96.88 203.99 98.03 202.82 99.19 201.65 C 99.75 203.27 100.30 204.90 100.86 206.53 C 99.15 206.08 97.44 205.63 95.73 205.18 Z" />
</g>
<g id="#4052f2ff">
<path fill="#4052f2" opacity="1.00" d=" M 384.23 240.14 C 389.44 237.02 394.87 233.63 401.14 233.49 C 400.21 237.74 399.78 242.15 398.19 246.22 C 395.71 247.99 392.75 248.92 389.93 249.98 C 386.84 250.98 383.64 252.13 380.35 251.81 C 378.25 250.79 378.56 248.07 378.96 246.19 C 379.47 243.35 381.95 241.57 384.23 240.14 Z" />
<path fill="#4052f2" opacity="1.00" d=" M 320.39 250.34 C 324.68 247.15 328.92 243.83 333.70 241.39 L 334.49 242.10 C 334.98 242.56 335.97 243.49 336.46 243.95 C 335.62 247.26 335.43 251.21 332.57 253.53 C 328.11 257.37 322.11 258.38 316.59 259.78 C 315.88 258.81 315.24 257.80 314.67 256.76 C 315.64 253.94 318.16 252.12 320.39 250.34 Z" />
<path fill="#4052f2" opacity="1.00" d=" M 114.98 280.21 C 122.07 277.10 129.31 274.09 135.54 269.40 C 136.98 276.17 138.07 283.01 139.05 289.86 C 131.66 292.06 124.32 294.42 117.07 297.03 C 115.57 291.55 114.85 285.89 114.98 280.21 Z" />
</g>
<g id="#252146ff">
<path fill="#252146" opacity="1.00" d=" M 381.90 380.94 C 389.48 376.18 396.03 369.88 404.18 366.05 C 398.39 370.66 392.35 374.96 386.42 379.39 C 384.64 380.61 382.88 382.01 380.76 382.57 C 374.94 382.29 369.90 378.48 364.08 378.20 C 361.62 378.62 359.55 380.13 357.46 381.39 C 336.84 394.69 315.77 407.28 295.25 420.72 C 291.86 422.97 288.23 424.81 284.70 426.81 C 288.56 423.55 292.62 420.55 297.00 418.02 C 320.76 403.11 344.49 388.15 368.38 373.45 C 372.34 370.80 376.51 368.46 380.94 366.70 C 381.64 371.41 381.87 376.18 381.90 380.94 M 365.72 376.36 C 370.25 378.67 375.12 380.22 380.10 381.24 C 380.44 376.77 380.46 372.29 380.10 367.83 C 375.02 370.17 370.37 373.29 365.72 376.36 Z" />
</g>
</svg>
