<?xml version="1.0" encoding="UTF-8" ?>
<!DOCTYPE svg PUBLIC "-//W3C//DTD SVG 1.1//EN" "http://www.w3.org/Graphics/SVG/1.1/DTD/svg11.dtd">
<svg width="640pt" height="450pt" viewBox="0 0 640 450" version="1.1" xmlns="http://www.w3.org/2000/svg">
<g id="#d6e8ffff">
<path fill="#d6e8ff" opacity="1.00" d=" M 288.47 79.80 C 327.43 73.40 368.08 76.29 405.46 89.21 C 452.00 104.71 493.21 135.35 522.07 174.96 C 539.87 199.46 553.13 227.30 560.50 256.69 C 561.72 261.29 562.70 265.95 563.41 270.66 C 559.73 274.42 556.12 278.25 552.61 282.18 C 551.99 279.25 551.64 276.21 550.33 273.49 C 548.47 273.02 546.56 272.85 544.68 272.63 C 545.46 276.98 546.90 281.19 548.85 285.16 C 548.19 286.13 547.53 287.10 546.87 288.07 C 552.10 286.19 557.62 287.61 562.94 288.29 C 563.01 286.58 563.07 284.89 563.15 283.19 C 560.23 282.53 557.31 281.84 554.42 281.11 C 557.80 280.06 561.24 279.25 564.67 278.36 C 566.11 284.91 566.91 291.60 566.92 298.31 C 562.91 299.75 559.11 302.05 556.47 305.45 C 553.23 309.40 551.62 314.43 548.22 318.26 C 545.36 321.50 540.81 322.13 536.78 322.77 C 536.77 319.87 536.79 316.96 536.82 314.06 C 541.07 315.18 545.43 316.08 549.85 315.71 C 549.39 314.02 549.58 311.82 548.15 310.62 C 544.68 309.56 540.99 310.29 537.45 310.45 C 538.23 308.27 539.01 306.10 539.79 303.93 C 543.61 304.84 547.58 306.74 551.56 305.81 C 553.86 305.04 552.76 301.73 551.20 300.72 C 547.81 299.78 544.25 300.41 540.80 300.60 C 541.89 298.53 542.96 296.47 544.04 294.40 C 548.34 295.66 552.75 296.56 557.22 296.97 C 556.58 294.96 557.47 291.81 555.17 290.80 C 551.90 290.12 548.57 290.98 545.32 291.43 C 544.42 288.52 543.82 285.43 542.12 282.86 C 540.57 281.60 538.27 282.00 536.42 281.56 C 536.78 286.59 539.85 290.59 543.30 293.99 C 542.37 295.78 541.45 297.57 540.53 299.36 C 538.76 296.82 537.22 294.02 534.78 292.06 C 532.86 292.11 530.97 292.52 529.10 292.84 C 531.06 297.37 534.89 300.55 538.98 303.10 C 538.37 305.31 537.76 307.52 537.16 309.73 C 534.61 307.71 532.23 305.23 529.07 304.20 C 527.32 304.60 525.68 305.36 524.03 306.04 C 525.53 307.74 526.81 309.87 528.99 310.79 C 531.26 311.73 533.68 312.24 536.06 312.86 C 535.84 316.24 535.51 319.62 535.10 322.99 C 528.69 323.45 522.39 325.02 516.65 327.92 C 517.46 318.74 518.42 309.59 519.46 300.44 C 520.98 298.60 522.72 296.84 523.59 294.58 C 524.56 291.19 522.78 286.93 519.27 285.87 C 516.32 284.96 513.19 284.99 510.14 284.92 C 510.36 283.06 510.59 281.20 510.82 279.35 C 509.59 278.64 508.37 277.94 507.16 277.23 C 508.75 277.18 510.35 277.14 511.95 277.09 C 512.47 275.09 512.99 273.10 513.52 271.11 C 511.99 270.10 510.47 269.10 508.96 268.10 C 510.77 268.45 512.59 268.80 514.42 269.16 C 514.94 267.21 515.58 265.27 515.78 263.26 C 514.85 261.63 513.39 260.42 512.09 259.11 C 513.73 259.49 515.37 259.85 517.03 260.21 C 517.62 257.89 518.21 255.56 518.79 253.24 C 517.09 252.35 515.41 251.47 513.72 250.59 C 515.88 250.77 518.05 250.96 520.22 251.15 C 520.43 249.25 520.78 247.36 520.65 245.45 C 519.71 244.10 518.48 243.00 517.33 241.85 C 518.90 242.27 520.48 242.67 522.07 243.07 C 522.36 241.55 522.65 240.03 522.95 238.51 C 517.46 236.79 511.91 235.27 506.29 234.04 C 502.44 247.82 498.21 261.48 494.23 275.21 C 494.38 263.79 496.61 252.43 495.88 241.00 C 495.81 240.26 495.68 238.76 495.61 238.02 C 497.16 236.73 495.26 233.37 493.89 235.69 C 493.84 236.13 493.75 237.01 493.70 237.44 C 493.48 238.59 493.24 239.74 492.99 240.89 C 491.10 248.50 491.16 256.38 490.52 264.15 C 489.96 271.12 489.45 278.10 489.01 285.08 C 485.10 285.09 481.19 285.08 477.29 285.04 C 476.15 271.52 474.07 258.11 472.52 244.64 C 472.29 242.44 472.09 240.25 471.89 238.06 C 470.16 238.03 468.44 238.00 466.72 237.99 C 467.15 240.50 467.62 243.01 468.10 245.52 L 468.26 246.38 L 468.40 247.15 L 468.52 247.90 C 468.57 248.27 468.69 248.99 468.74 249.36 C 469.95 261.27 471.88 273.10 473.18 285.01 C 468.57 285.04 463.90 284.72 459.34 285.55 C 455.04 286.20 452.72 291.54 454.35 295.34 C 455.46 297.35 457.27 298.84 458.90 300.42 C 459.59 305.23 460.03 310.08 460.39 314.93 C 461.36 334.00 463.78 352.94 464.87 371.99 C 461.69 371.85 458.52 371.78 455.34 371.89 C 454.73 370.58 454.13 369.28 453.53 367.98 C 449.69 361.06 450.81 352.96 451.66 345.45 C 452.78 345.31 453.92 345.16 455.05 345.00 C 455.01 343.66 454.97 342.33 454.94 341.00 C 451.29 340.84 447.65 340.67 444.00 340.65 C 413.00 340.73 382.00 340.68 351.00 340.68 C 344.74 340.75 338.43 340.20 332.21 341.16 C 326.54 341.99 321.56 346.26 319.89 351.75 C 318.55 356.21 319.08 361.35 321.81 365.19 C 323.90 368.16 326.96 370.27 330.11 371.98 C 322.11 371.51 314.09 371.76 306.08 371.79 C 306.08 371.09 306.09 369.69 306.09 368.99 C 306.12 361.72 306.13 354.46 306.11 347.20 C 306.10 345.89 306.09 344.58 306.09 343.28 C 311.70 343.10 317.65 344.26 322.99 342.05 C 324.12 337.46 323.67 332.68 323.77 328.00 C 323.67 323.33 324.13 318.56 322.99 313.98 C 321.45 313.24 319.76 312.89 318.09 312.60 C 315.13 312.58 312.17 312.74 309.21 312.83 C 309.59 311.60 309.97 310.37 310.34 309.15 C 309.96 308.65 309.18 307.65 308.80 307.15 C 307.05 304.96 305.67 302.41 305.39 299.58 C 304.79 294.48 304.59 289.28 305.27 284.17 C 305.58 281.71 307.43 279.90 308.82 277.98 C 309.66 276.78 310.42 275.52 310.96 274.16 C 308.12 272.09 304.45 272.56 301.14 272.39 C 302.34 270.71 303.88 269.09 304.14 266.95 C 304.73 261.99 304.30 256.98 304.43 252.00 C 304.36 247.91 304.72 243.65 303.25 239.75 C 301.59 239.13 299.83 238.83 298.08 238.58 C 258.03 238.73 217.97 238.50 177.91 238.72 C 174.31 238.73 170.71 238.67 167.12 238.63 C 164.71 238.60 162.30 238.59 159.89 238.60 C 156.17 238.63 152.46 238.69 148.75 238.68 C 140.88 238.58 132.99 238.32 125.15 239.16 C 124.28 248.42 124.53 257.73 124.61 267.02 C 124.90 268.46 125.24 269.90 125.80 271.27 C 128.37 272.34 131.20 272.38 133.94 272.45 C 139.03 272.46 144.12 272.31 149.21 272.28 C 149.95 272.27 151.44 272.23 152.19 272.22 C 147.22 273.55 142.29 275.96 139.13 280.16 C 133.58 287.14 133.56 297.87 139.11 304.86 C 142.24 309.07 147.14 311.54 152.15 312.73 C 148.07 312.57 143.99 312.69 139.91 312.82 C 139.89 314.22 139.87 315.63 139.86 317.04 C 139.79 324.33 139.74 331.62 139.96 338.91 C 140.01 340.40 140.07 341.90 140.14 343.40 C 135.79 343.20 131.42 342.93 127.07 343.25 C 125.84 337.70 125.71 330.95 120.84 327.16 C 115.95 323.88 109.81 323.69 104.18 322.70 C 104.03 319.49 103.90 316.28 103.86 313.07 C 108.25 311.85 112.50 310.01 115.96 306.97 C 114.32 305.91 112.73 304.72 110.90 304.00 C 107.62 304.96 105.20 307.54 102.67 309.69 C 102.01 307.51 101.35 305.33 100.69 303.16 C 104.02 300.29 109.43 298.21 109.86 293.26 C 108.53 291.89 106.33 291.18 104.59 292.23 C 102.30 294.25 101.00 297.09 99.47 299.68 C 98.76 298.45 98.04 297.22 97.32 296.00 C 97.60 297.51 97.88 299.02 98.17 300.53 C 95.52 300.34 92.88 300.13 90.23 300.13 C 90.10 299.24 89.83 297.45 89.70 296.55 C 93.71 294.95 97.52 292.66 100.47 289.48 C 102.50 287.37 102.79 284.31 103.44 281.60 C 101.53 281.86 99.57 281.99 97.74 282.65 C 95.91 285.11 95.10 288.11 94.06 290.95 C 93.04 289.37 92.01 287.79 91.02 286.19 C 91.27 285.46 91.77 283.98 92.02 283.25 C 93.85 279.65 94.47 275.63 94.00 271.63 C 93.73 267.10 95.14 262.72 96.20 258.37 C 102.07 234.75 111.41 211.96 124.23 191.25 C 148.25 151.73 184.02 119.41 225.87 99.68 C 245.63 90.06 266.87 83.67 288.47 79.80 M 378.55 107.54 C 376.84 108.39 375.65 110.15 375.34 112.01 C 375.67 114.33 377.63 116.34 379.96 116.66 C 382.30 116.48 384.51 114.46 384.41 112.01 C 384.55 109.08 381.42 106.30 378.55 107.54 M 257.55 125.46 C 257.55 127.48 257.54 129.51 257.51 131.54 C 259.52 131.49 261.53 131.45 263.55 131.44 C 263.53 129.46 263.52 127.48 263.54 125.51 C 261.54 125.51 259.55 125.49 257.55 125.46 M 436.07 125.93 C 434.80 129.29 433.51 132.63 432.21 135.97 C 432.80 137.29 433.40 138.61 434.01 139.93 C 435.43 138.58 436.86 137.24 438.29 135.89 C 441.20 140.41 443.70 145.17 446.20 149.93 C 447.75 148.95 449.30 147.96 450.85 146.98 C 447.06 139.48 443.75 131.71 439.16 124.65 C 438.12 125.08 437.09 125.50 436.07 125.93 M 421.62 168.29 C 421.71 170.45 421.74 172.61 421.69 174.77 C 424.00 174.73 426.30 174.70 428.61 174.70 C 428.27 173.73 427.94 172.77 427.62 171.82 C 427.93 170.68 428.26 169.54 428.58 168.41 C 426.26 168.38 423.94 168.34 421.62 168.29 M 187.50 174.59 C 181.62 176.68 176.42 180.25 171.01 183.31 C 171.73 184.88 172.45 186.46 173.18 188.03 C 179.72 184.99 186.06 181.52 192.22 177.76 C 190.91 176.45 189.84 173.44 187.50 174.59 M 478.45 186.57 C 468.81 189.74 458.88 192.08 449.52 196.03 C 458.10 199.98 467.21 202.58 476.04 205.92 C 489.10 210.46 502.01 215.49 515.18 219.72 C 514.11 215.30 512.80 210.96 511.37 206.65 C 508.38 197.54 505.94 188.25 502.78 179.20 C 494.54 181.23 486.58 184.17 478.45 186.57 M 374.31 193.95 C 374.85 196.47 375.37 198.99 375.89 201.51 C 373.58 202.41 371.28 203.32 368.98 204.23 C 369.39 205.79 369.81 207.35 370.24 208.92 C 372.78 208.44 375.33 207.98 377.88 207.49 C 378.76 209.68 379.64 211.86 380.54 214.05 C 382.28 213.76 384.04 213.46 385.79 213.15 C 385.23 210.59 384.69 208.03 384.16 205.47 C 386.46 204.56 388.75 203.64 391.05 202.73 C 390.65 201.20 390.25 199.68 389.86 198.15 C 387.28 198.47 384.70 198.78 382.12 199.10 C 381.22 196.80 380.32 194.51 379.43 192.21 C 377.72 192.79 376.02 193.37 374.31 193.95 M 255.40 200.49 C 253.31 200.98 251.61 202.85 251.35 204.98 C 251.52 208.37 255.62 210.58 258.54 208.78 C 262.39 206.59 259.81 199.20 255.40 200.49 M 315.54 219.39 C 313.24 220.38 312.20 223.35 313.16 225.61 C 313.92 227.14 315.40 228.25 317.03 228.69 C 319.54 228.17 322.45 226.09 321.86 223.18 C 321.64 220.20 318.22 218.40 315.54 219.39 M 126.54 224.42 C 125.37 225.26 124.58 226.60 124.40 228.02 C 124.75 230.60 127.14 232.96 129.83 232.72 C 132.95 232.42 135.00 228.50 133.30 225.82 C 132.01 223.47 128.69 223.13 126.54 224.42 M 354.65 234.48 C 349.23 235.09 343.73 236.16 338.92 238.85 C 329.57 243.87 323.09 253.61 321.67 264.09 C 326.80 261.64 331.27 258.09 335.95 254.93 C 342.50 250.53 350.66 250.11 358.28 249.71 C 358.75 264.65 355.03 279.52 349.13 293.17 C 345.34 302.26 338.78 309.80 334.64 318.70 C 332.81 322.67 331.42 327.17 332.45 331.55 C 333.48 335.49 337.40 337.95 341.23 338.59 C 345.06 339.21 349.13 339.20 352.80 337.82 C 356.66 336.31 359.46 332.94 361.28 329.32 C 364.70 322.64 365.73 315.08 366.57 307.72 C 368.62 288.22 369.47 268.62 370.04 249.03 C 379.43 248.76 388.82 248.90 398.21 249.23 C 397.25 256.89 395.21 264.36 394.07 272.00 C 392.43 282.69 390.97 293.43 390.27 304.23 C 389.89 310.86 389.89 317.66 391.94 324.04 C 394.88 333.35 404.24 340.17 414.00 340.07 C 419.32 340.18 424.59 338.10 428.45 334.44 C 434.68 328.59 438.35 320.29 439.09 311.82 C 436.88 311.95 434.63 311.90 432.50 312.56 C 428.44 313.95 425.05 316.89 420.84 317.87 C 417.43 318.61 414.24 316.28 412.44 313.59 C 408.91 308.48 408.64 302.00 408.86 296.01 C 409.58 280.68 408.97 265.32 408.25 250.00 C 418.48 249.55 428.62 251.30 438.84 251.22 C 438.96 245.25 438.94 239.28 438.77 233.31 C 410.73 232.80 382.60 231.64 354.65 234.48 M 537.77 255.54 C 537.81 257.64 537.82 259.74 537.79 261.83 C 539.93 261.80 542.08 261.78 544.23 261.78 C 544.21 259.70 544.24 257.63 544.30 255.55 C 542.12 255.65 539.94 255.65 537.77 255.54 Z" />
<path fill="#d6e8ff" opacity="1.00" d=" M 379.23 109.06 C 380.72 108.86 382.76 109.39 382.87 111.19 C 383.51 112.89 381.94 114.05 380.77 114.96 C 378.74 115.09 376.74 113.38 377.13 111.25 C 377.67 110.37 378.37 109.64 379.23 109.06 Z" />
<path fill="#d6e8ff" opacity="1.00" d=" M 433.76 138.07 C 433.77 133.44 435.86 129.25 438.61 125.65 C 441.34 130.28 443.71 135.11 446.17 139.89 C 447.22 142.04 448.36 144.21 448.80 146.59 C 448.06 147.18 447.31 147.75 446.55 148.29 C 443.87 143.17 441.18 138.05 438.29 133.05 C 436.81 134.75 435.31 136.43 433.76 138.07 Z" />
<path fill="#d6e8ff" opacity="1.00" d=" M 175.30 182.16 C 179.51 179.25 184.27 177.30 188.90 175.15 C 189.23 176.07 189.57 177.00 189.91 177.92 C 184.24 180.89 178.91 184.77 172.55 186.11 C 173.35 184.73 173.89 183.07 175.30 182.16 Z" />
<path fill="#d6e8ff" opacity="1.00" d=" M 491.65 184.12 C 495.00 182.91 498.42 181.88 501.88 181.01 C 503.03 184.42 504.06 187.89 504.89 191.40 C 502.30 191.06 499.62 190.94 497.19 189.90 C 494.71 188.71 493.27 186.22 491.65 184.12 Z" />
<path fill="#d6e8ff" opacity="1.00" d=" M 465.25 192.34 C 473.35 189.52 481.52 186.84 489.84 184.73 C 491.98 187.01 493.93 189.65 496.76 191.15 C 499.56 192.43 502.66 192.79 505.66 193.39 C 507.67 198.76 509.29 204.26 510.67 209.83 C 508.77 211.46 506.87 213.09 504.99 214.73 C 491.04 209.88 477.15 204.84 463.25 199.85 C 463.91 197.34 464.58 194.84 465.25 192.34 Z" />
<path fill="#d6e8ff" opacity="1.00" d=" M 453.69 196.14 C 456.81 195.05 460.54 192.06 463.80 194.02 C 463.36 195.85 462.69 197.60 462.07 199.37 C 459.22 198.44 456.41 197.39 453.69 196.14 Z" />
<path fill="#d6e8ff" opacity="1.00" d=" M 376.01 194.11 C 376.69 194.13 378.04 194.16 378.71 194.17 C 379.60 196.36 380.48 198.55 381.37 200.74 C 383.91 200.30 386.45 199.87 388.99 199.43 C 389.22 200.19 389.45 200.95 389.68 201.72 C 387.25 202.80 384.82 203.89 382.38 204.97 C 382.96 207.23 383.53 209.49 384.09 211.76 C 383.55 212.13 382.46 212.88 381.91 213.26 C 380.87 210.95 379.83 208.65 378.80 206.35 C 375.84 206.78 372.70 207.22 370.01 205.57 C 372.48 204.24 375.00 203.03 377.56 201.90 C 377.04 199.30 376.53 196.70 376.01 194.11 Z" />
<path fill="#d6e8ff" opacity="1.00" d=" M 255.24 202.09 C 256.55 201.98 257.91 202.33 258.79 203.37 C 258.81 204.59 259.39 206.34 258.19 207.18 C 256.41 209.00 253.15 207.43 253.17 205.00 C 253.05 203.68 254.31 202.79 255.24 202.09 Z" />
<path fill="#d6e8ff" opacity="1.00" d=" M 506.35 215.09 C 507.90 213.79 509.46 212.49 511.03 211.21 C 511.70 213.22 512.37 215.25 513.03 217.27 C 510.80 216.56 508.57 215.83 506.35 215.09 Z" />
<path fill="#d6e8ff" opacity="1.00" d=" M 315.04 220.68 C 316.43 221.01 317.94 221.05 319.22 221.77 C 319.78 222.86 320.30 223.98 320.79 225.12 C 318.83 225.57 316.88 226.00 314.92 226.42 C 314.94 224.50 314.98 222.59 315.04 220.68 Z" />
<path fill="#d6e8ff" opacity="1.00" d=" M 126.61 225.59 C 128.49 225.90 130.84 225.40 132.15 227.15 C 132.71 229.63 130.63 231.53 128.19 231.07 C 126.52 229.75 126.95 227.44 126.61 225.59 Z" />
<path fill="#d6e8ff" opacity="1.00" d=" M 91.23 288.96 C 93.59 288.78 92.96 291.69 90.88 290.61 L 90.70 289.71 L 91.23 288.96 Z" />
<path fill="#d6e8ff" opacity="1.00" d=" M 153.27 292.24 C 160.95 292.66 168.80 291.35 176.34 293.32 C 168.65 294.07 160.93 293.59 153.23 293.77 C 153.24 293.39 153.26 292.62 153.27 292.24 Z" />
<path fill="#d6e8ff" opacity="1.00" d=" M 181.68 293.31 C 187.65 291.62 193.89 292.40 200.00 292.35 C 207.67 292.31 215.34 292.43 223.02 292.23 C 226.49 292.09 229.97 292.46 233.33 293.32 C 224.58 294.14 215.78 293.52 207.00 293.70 C 198.56 293.52 190.10 294.15 181.68 293.31 Z" />
<path fill="#d6e8ff" opacity="1.00" d=" M 256.28 292.23 C 263.76 292.35 271.25 292.35 278.74 292.23 C 278.74 292.62 278.74 293.39 278.74 293.77 C 271.24 293.70 263.74 293.70 256.24 293.77 C 256.25 293.39 256.27 292.62 256.28 292.23 Z" />
<path fill="#d6e8ff" opacity="1.00" d=" M 89.73 307.31 C 93.08 306.03 96.47 304.85 99.88 303.74 C 100.64 306.00 101.41 308.26 102.18 310.51 C 97.82 310.04 93.42 310.31 89.16 311.38 C 89.36 310.02 89.54 308.67 89.73 307.31 Z" />
<path fill="#d6e8ff" opacity="1.00" d=" M 89.40 315.79 C 93.56 315.97 97.70 315.27 101.60 313.81 C 102.48 316.82 103.04 319.92 103.45 323.03 C 98.14 322.24 92.41 320.66 89.40 315.79 Z" />
<path fill="#d6e8ff" opacity="1.00" d=" M 164.25 335.23 C 178.41 335.39 192.57 335.37 206.73 335.24 C 206.74 335.62 206.76 336.39 206.77 336.77 C 192.60 336.61 178.42 336.61 164.24 336.77 C 164.24 336.39 164.25 335.62 164.25 335.23 Z" />
<path fill="#d6e8ff" opacity="1.00" d=" M 551.46 349.42 C 555.67 346.57 560.91 346.28 565.79 345.55 C 565.33 353.56 563.72 361.44 561.99 369.25 C 559.20 371.24 555.76 371.74 552.43 371.92 C 550.80 366.64 548.42 361.51 547.79 355.98 C 547.38 353.23 549.30 350.84 551.46 349.42 Z" />
<path fill="#d6e8ff" opacity="1.00" d=" M 241.56 351.29 C 247.17 349.26 253.19 350.65 259.00 350.37 C 264.80 350.65 270.84 349.25 276.44 351.29 C 270.65 352.01 264.81 351.62 259.00 351.64 C 253.19 351.62 247.35 352.01 241.56 351.29 Z" />
<path fill="#d6e8ff" opacity="1.00" d=" M 255.22 358.23 C 262.06 358.34 268.91 358.34 275.76 358.24 C 275.76 358.62 275.77 359.39 275.77 359.77 C 268.93 359.66 262.08 359.66 255.24 359.77 C 255.24 359.39 255.22 358.62 255.22 358.23 Z" />
</g>
<g id="#d94559ff">
<path fill="#d94559" opacity="1.00" d=" M 378.55 107.54 C 381.42 106.30 384.55 109.08 384.41 112.01 C 384.51 114.46 382.30 116.48 379.96 116.66 C 377.63 116.34 375.67 114.33 375.34 112.01 C 375.65 110.15 376.84 108.39 378.55 107.54 M 379.23 109.06 C 378.37 109.64 377.67 110.37 377.13 111.25 C 376.74 113.38 378.74 115.09 380.77 114.96 C 381.94 114.05 383.51 112.89 382.87 111.19 C 382.76 109.39 380.72 108.86 379.23 109.06 Z" />
<path fill="#d94559" opacity="1.00" d=" M 255.40 200.49 C 259.81 199.20 262.39 206.59 258.54 208.78 C 255.62 210.58 251.52 208.37 251.35 204.98 C 251.61 202.85 253.31 200.98 255.40 200.49 M 255.24 202.09 C 254.31 202.79 253.05 203.68 253.17 205.00 C 253.15 207.43 256.41 209.00 258.19 207.18 C 259.39 206.34 258.81 204.59 258.79 203.37 C 257.91 202.33 256.55 201.98 255.24 202.09 Z" />
<path fill="#d94559" opacity="1.00" d=" M 152.19 272.22 C 154.83 272.10 157.48 272.07 160.13 272.06 C 162.39 272.05 164.65 272.07 166.91 272.09 C 170.59 272.14 174.26 272.18 177.94 272.17 C 213.62 272.04 249.31 272.18 284.99 272.09 C 290.38 272.07 295.76 272.26 301.14 272.39 C 304.45 272.56 308.12 272.09 310.96 274.16 C 310.42 275.52 309.66 276.78 308.82 277.98 C 305.22 278.21 301.60 278.35 297.99 278.36 C 255.33 278.28 212.67 278.37 170.01 278.32 C 164.23 278.38 158.39 277.84 152.65 278.78 C 146.66 279.73 141.61 285.01 141.16 291.11 C 140.63 295.81 142.67 300.68 146.46 303.53 C 149.67 306.15 153.95 306.70 157.95 306.77 C 201.63 306.61 245.32 306.76 289.00 306.69 C 295.60 306.62 302.21 306.58 308.80 307.15 C 309.18 307.65 309.96 308.65 310.34 309.15 C 309.97 310.37 309.59 311.60 309.21 312.83 C 296.10 313.12 282.98 312.83 269.87 312.95 C 268.29 312.94 266.71 312.95 265.13 312.95 C 263.14 312.95 261.16 312.95 259.17 312.95 C 257.83 312.94 256.48 312.94 255.14 312.94 C 239.39 312.90 223.63 312.97 207.88 312.96 C 189.30 312.71 170.72 313.25 152.15 312.73 C 147.14 311.54 142.24 309.07 139.11 304.86 C 133.56 297.87 133.58 287.14 139.13 280.16 C 142.29 275.96 147.22 273.55 152.19 272.22 Z" />
<path fill="#d94559" opacity="1.00" d=" M 319.89 351.75 C 321.56 346.26 326.54 341.99 332.21 341.16 C 338.43 340.20 344.74 340.75 351.00 340.68 C 382.00 340.68 413.00 340.73 444.00 340.65 C 447.65 340.67 451.29 340.84 454.94 341.00 C 454.97 342.33 455.01 343.66 455.05 345.00 C 453.92 345.16 452.78 345.31 451.66 345.45 C 446.78 345.91 441.88 345.62 437.00 345.61 C 408.00 345.60 379.00 345.64 350.00 345.61 C 344.38 345.66 338.71 345.13 333.12 345.98 C 329.67 346.50 326.43 348.68 324.97 351.90 C 323.04 356.05 323.94 361.51 327.55 364.48 C 330.64 367.25 334.99 367.63 338.96 367.70 C 373.30 367.50 407.65 367.70 441.99 367.58 C 445.84 367.58 449.69 367.72 453.53 367.98 C 454.13 369.28 454.73 370.58 455.34 371.89 C 450.89 372.08 446.45 372.34 442.00 372.35 C 412.67 372.28 383.33 372.33 354.00 372.32 C 346.04 372.29 338.06 372.54 330.11 371.98 C 326.96 370.27 323.90 368.16 321.81 365.19 C 319.08 361.35 318.55 356.21 319.89 351.75 Z" />
</g>
<g id="#f99967ff">
<path fill="#f99967" opacity="1.00" d=" M 257.55 125.46 C 259.55 125.49 261.54 125.51 263.54 125.51 C 263.52 127.48 263.53 129.46 263.55 131.44 C 261.53 131.45 259.52 131.49 257.51 131.54 C 257.54 129.51 257.55 127.48 257.55 125.46 Z" />
<path fill="#f99967" opacity="1.00" d=" M 421.62 168.29 C 423.94 168.34 426.26 168.38 428.58 168.41 C 428.26 169.54 427.93 170.68 427.62 171.82 C 427.94 172.77 428.27 173.73 428.61 174.70 C 426.30 174.70 424.00 174.73 421.69 174.77 C 421.74 172.61 421.71 170.45 421.62 168.29 Z" />
<path fill="#f99967" opacity="1.00" d=" M 159.89 238.60 C 162.30 238.59 164.71 238.60 167.12 238.63 C 166.36 249.77 166.63 260.94 166.91 272.09 C 164.65 272.07 162.39 272.05 160.13 272.06 C 160.44 260.91 160.71 249.73 159.89 238.60 Z" />
<path fill="#f99967" opacity="1.00" d=" M 125.15 239.16 C 132.99 238.32 140.88 238.58 148.75 238.68 C 149.75 248.08 149.33 257.55 149.26 266.98 C 141.04 267.00 132.83 266.99 124.61 267.02 C 124.53 257.73 124.28 248.42 125.15 239.16 Z" />
<path fill="#f99967" opacity="1.00" d=" M 177.91 238.72 C 217.97 238.50 258.03 238.73 298.08 238.58 C 298.06 242.92 298.20 247.30 297.41 251.58 C 296.09 259.20 289.52 265.63 281.84 266.67 C 275.59 267.51 269.27 266.94 263.00 267.00 C 234.63 267.00 206.25 266.99 177.88 267.01 C 177.77 257.58 177.75 248.15 177.91 238.72 M 195.42 247.32 C 190.58 249.10 188.79 255.38 191.30 259.71 C 193.79 264.54 201.00 265.60 204.91 261.89 C 208.26 258.99 208.70 253.49 205.99 250.02 C 203.63 246.82 199.02 245.80 195.42 247.32 Z" />
<path fill="#f99967" opacity="1.00" d=" M 537.77 255.54 C 539.94 255.65 542.12 255.65 544.30 255.55 C 544.24 257.63 544.21 259.70 544.23 261.78 C 542.08 261.78 539.93 261.80 537.79 261.83 C 537.82 259.74 537.81 257.64 537.77 255.54 Z" />
</g>
<g id="#fefefeff">
<path fill="#fefefe" opacity="1.00" d=" M 436.07 125.93 C 437.09 125.50 438.12 125.08 439.16 124.65 C 443.75 131.71 447.06 139.48 450.85 146.98 C 449.30 147.96 447.75 148.95 446.20 149.93 C 443.70 145.17 441.20 140.41 438.29 135.89 C 436.86 137.24 435.43 138.58 434.01 139.93 C 433.40 138.61 432.80 137.29 432.21 135.97 C 433.51 132.63 434.80 129.29 436.07 125.93 M 433.76 138.07 C 435.31 136.43 436.81 134.75 438.29 133.05 C 441.18 138.05 443.87 143.17 446.55 148.29 C 447.31 147.75 448.06 147.18 448.80 146.59 C 448.36 144.21 447.22 142.04 446.17 139.89 C 443.71 135.11 441.34 130.28 438.61 125.65 C 435.86 129.25 433.77 133.44 433.76 138.07 Z" />
<path fill="#fefefe" opacity="1.00" d=" M 187.50 174.59 C 189.84 173.44 190.91 176.45 192.22 177.76 C 186.06 181.52 179.72 184.99 173.18 188.03 C 172.45 186.46 171.73 184.88 171.01 183.31 C 176.42 180.25 181.62 176.68 187.50 174.59 M 175.30 182.16 C 173.89 183.07 173.35 184.73 172.55 186.11 C 178.91 184.77 184.24 180.89 189.91 177.92 C 189.57 177.00 189.23 176.07 188.90 175.15 C 184.27 177.30 179.51 179.25 175.30 182.16 Z" />
<path fill="#fefefe" opacity="1.00" d=" M 478.45 186.57 C 486.58 184.17 494.54 181.23 502.78 179.20 C 505.94 188.25 508.38 197.54 511.37 206.65 C 512.80 210.96 514.11 215.30 515.18 219.72 C 502.01 215.49 489.10 210.46 476.04 205.92 C 467.21 202.58 458.10 199.98 449.52 196.03 C 458.88 192.08 468.81 189.74 478.45 186.57 M 491.65 184.12 C 493.27 186.22 494.71 188.71 497.19 189.90 C 499.62 190.94 502.30 191.06 504.89 191.40 C 504.06 187.89 503.03 184.42 501.88 181.01 C 498.42 181.88 495.00 182.91 491.65 184.12 M 465.25 192.34 C 464.58 194.84 463.91 197.34 463.25 199.85 C 477.15 204.84 491.04 209.88 504.99 214.73 C 506.87 213.09 508.77 211.46 510.67 209.83 C 509.29 204.26 507.67 198.76 505.66 193.39 C 502.66 192.79 499.56 192.43 496.76 191.15 C 493.93 189.65 491.98 187.01 489.84 184.73 C 481.52 186.84 473.35 189.52 465.25 192.34 M 453.69 196.14 C 456.41 197.39 459.22 198.44 462.07 199.37 C 462.69 197.60 463.36 195.85 463.80 194.02 C 460.54 192.06 456.81 195.05 453.69 196.14 M 506.35 215.09 C 508.57 215.83 510.80 216.56 513.03 217.27 C 512.37 215.25 511.70 213.22 511.03 211.21 C 509.46 212.49 507.90 213.79 506.35 215.09 Z" />
<path fill="#fefefe" opacity="1.00" d=" M 374.31 193.95 C 376.02 193.37 377.72 192.79 379.43 192.21 C 380.32 194.51 381.22 196.80 382.12 199.10 C 384.70 198.78 387.28 198.47 389.86 198.15 C 390.25 199.68 390.65 201.20 391.05 202.73 C 388.75 203.64 386.46 204.56 384.16 205.47 C 384.69 208.03 385.23 210.59 385.79 213.15 C 384.04 213.46 382.28 213.76 380.54 214.05 C 379.64 211.86 378.76 209.68 377.88 207.49 C 375.33 207.98 372.78 208.44 370.24 208.92 C 369.81 207.35 369.39 205.79 368.98 204.23 C 371.28 203.32 373.58 202.41 375.89 201.51 C 375.37 198.99 374.85 196.47 374.31 193.95 M 376.01 194.11 C 376.53 196.70 377.04 199.30 377.56 201.90 C 375.00 203.03 372.48 204.24 370.01 205.57 C 372.70 207.22 375.84 206.78 378.80 206.35 C 379.83 208.65 380.87 210.95 381.91 213.26 C 382.46 212.88 383.55 212.13 384.09 211.76 C 383.53 209.49 382.96 207.23 382.38 204.97 C 384.82 203.89 387.25 202.80 389.68 201.72 C 389.45 200.95 389.22 200.19 388.99 199.43 C 386.45 199.87 383.91 200.30 381.37 200.74 C 380.48 198.55 379.60 196.36 378.71 194.17 C 378.04 194.16 376.69 194.13 376.01 194.11 Z" />
<path fill="#fefefe" opacity="1.00" d=" M 148.75 238.68 C 152.46 238.69 156.17 238.63 159.89 238.60 C 160.71 249.73 160.44 260.91 160.13 272.06 C 157.48 272.07 154.83 272.10 152.19 272.22 C 151.44 272.23 149.95 272.27 149.21 272.28 C 149.22 270.51 149.24 268.75 149.26 266.98 C 149.33 257.55 149.75 248.08 148.75 238.68 Z" />
<path fill="#fefefe" opacity="1.00" d=" M 167.12 238.63 C 170.71 238.67 174.31 238.73 177.91 238.72 C 177.75 248.15 177.77 257.58 177.88 267.01 C 177.90 268.72 177.92 270.44 177.94 272.17 C 174.26 272.18 170.59 272.14 166.91 272.09 C 166.63 260.94 166.36 249.77 167.12 238.63 Z" />
<path fill="#fefefe" opacity="1.00" d=" M 195.42 247.32 C 199.02 245.80 203.63 246.82 205.99 250.02 C 208.70 253.49 208.26 258.99 204.91 261.89 C 201.00 265.60 193.79 264.54 191.30 259.71 C 188.79 255.38 190.58 249.10 195.42 247.32 Z" />
<path fill="#fefefe" opacity="1.00" d=" M 152.65 278.78 C 158.39 277.84 164.23 278.38 170.01 278.32 C 212.67 278.37 255.33 278.28 297.99 278.36 C 301.60 278.35 305.22 278.21 308.82 277.98 C 307.43 279.90 305.58 281.71 305.27 284.17 C 304.59 289.28 304.79 294.48 305.39 299.58 C 305.67 302.41 307.05 304.96 308.80 307.15 C 302.21 306.58 295.60 306.62 289.00 306.69 C 245.32 306.76 201.63 306.61 157.95 306.77 C 153.95 306.70 149.67 306.15 146.46 303.53 C 142.67 300.68 140.63 295.81 141.16 291.11 C 141.61 285.01 146.66 279.73 152.65 278.78 M 237.81 284.25 C 237.60 288.06 237.56 291.88 237.65 295.69 C 240.90 294.61 244.33 294.64 247.51 295.95 C 247.74 292.06 247.80 288.16 247.76 284.26 C 244.44 284.27 241.12 284.27 237.81 284.25 M 153.84 285.47 C 179.79 285.85 205.75 285.32 231.70 285.74 L 231.78 285.26 C 205.80 285.65 179.82 285.24 153.84 285.47 M 153.27 292.24 C 153.26 292.62 153.24 293.39 153.23 293.77 C 160.93 293.59 168.65 294.07 176.34 293.32 C 168.80 291.35 160.95 292.66 153.27 292.24 M 181.68 293.31 C 190.10 294.15 198.56 293.52 207.00 293.70 C 215.78 293.52 224.58 294.14 233.33 293.32 C 229.97 292.46 226.49 292.09 223.02 292.23 C 215.34 292.43 207.67 292.31 200.00 292.35 C 193.89 292.40 187.65 291.62 181.68 293.31 M 256.28 292.23 C 256.27 292.62 256.25 293.39 256.24 293.77 C 263.74 293.70 271.24 293.70 278.74 293.77 C 278.74 293.39 278.74 292.62 278.74 292.23 C 271.25 292.35 263.76 292.35 256.28 292.23 M 197.86 300.53 C 223.57 300.68 249.28 300.52 274.99 300.60 C 279.04 300.64 283.10 300.62 287.15 300.47 C 261.44 300.32 235.72 300.48 210.01 300.40 C 205.95 300.35 201.90 300.36 197.86 300.53 Z" />
<path fill="#fefefe" opacity="1.00" d=" M 255.14 312.94 C 256.48 312.94 257.83 312.94 259.17 312.95 C 259.42 323.00 259.53 333.05 259.04 343.10 C 257.73 343.10 256.43 343.12 255.13 343.14 C 255.17 341.53 255.23 339.92 255.27 338.31 C 255.43 329.86 255.36 321.40 255.14 312.94 Z" />
<path fill="#fefefe" opacity="1.00" d=" M 265.13 312.95 C 266.71 312.95 268.29 312.94 269.87 312.95 C 269.54 321.66 269.55 330.38 269.78 339.09 C 269.82 340.45 269.86 341.82 269.91 343.19 C 268.30 343.16 266.70 343.13 265.10 343.12 C 265.15 341.76 265.19 340.40 265.24 339.05 C 265.49 330.35 265.45 321.65 265.13 312.95 Z" />
<path fill="#fefefe" opacity="1.00" d=" M 139.86 317.04 C 159.26 317.09 178.66 317.16 198.06 316.96 C 202.39 317.08 207.42 316.96 210.71 320.27 C 214.93 324.28 214.92 331.70 210.70 335.71 C 208.22 338.29 204.44 338.65 201.06 338.76 C 180.70 338.76 160.32 338.38 139.96 338.91 C 139.74 331.62 139.79 324.33 139.86 317.04 M 141.85 320.53 C 154.61 320.62 167.37 320.64 180.13 320.53 C 167.37 320.32 154.61 320.32 141.85 320.53 M 182.33 323.18 C 182.26 326.29 182.17 329.41 182.00 332.53 C 183.56 331.69 185.09 330.73 186.82 330.27 C 188.31 330.87 189.66 331.77 191.05 332.59 C 190.89 329.45 190.81 326.30 190.74 323.16 C 187.94 323.17 185.13 323.18 182.33 323.18 M 164.25 335.23 C 164.25 335.62 164.24 336.39 164.24 336.77 C 178.42 336.61 192.60 336.61 206.77 336.77 C 206.76 336.39 206.74 335.62 206.73 335.24 C 192.57 335.37 178.41 335.39 164.25 335.23 Z" />
<path fill="#fefefe" opacity="1.00" d=" M 233.48 320.36 C 236.81 318.85 241.12 319.66 243.46 322.54 C 246.35 325.92 245.88 331.59 242.43 334.41 C 238.87 337.44 232.80 336.75 230.18 332.83 C 227.22 328.81 228.78 322.28 233.48 320.36 Z" />
<path fill="#fefefe" opacity="1.00" d=" M 176.17 343.21 C 177.51 343.20 178.85 343.19 180.19 343.19 C 180.51 352.75 180.46 362.31 180.23 371.86 C 178.92 371.85 177.61 371.83 176.31 371.82 C 176.30 370.59 176.30 369.35 176.30 368.13 C 176.28 359.82 176.47 351.51 176.17 343.21 Z" />
<path fill="#fefefe" opacity="1.00" d=" M 186.17 343.20 C 187.73 343.20 189.30 343.20 190.87 343.22 C 190.49 351.45 190.75 359.69 190.74 367.93 C 190.73 369.22 190.72 370.52 190.71 371.82 C 189.19 371.83 187.66 371.85 186.14 371.86 C 186.58 362.31 186.55 352.74 186.17 343.20 Z" />
<path fill="#fefefe" opacity="1.00" d=" M 324.97 351.90 C 326.43 348.68 329.67 346.50 333.12 345.98 C 338.71 345.13 344.38 345.66 350.00 345.61 C 379.00 345.64 408.00 345.60 437.00 345.61 C 441.88 345.62 446.78 345.91 451.66 345.45 C 450.81 352.96 449.69 361.06 453.53 367.98 C 449.69 367.72 445.84 367.58 441.99 367.58 C 407.65 367.70 373.30 367.50 338.96 367.70 C 334.99 367.63 330.64 367.25 327.55 364.48 C 323.94 361.51 323.04 356.05 324.97 351.90 M 398.36 350.19 C 398.36 353.24 398.34 356.30 398.26 359.36 C 401.04 358.84 403.85 358.56 406.68 358.44 C 406.68 355.69 406.68 352.95 406.71 350.21 C 403.92 350.19 401.14 350.19 398.36 350.19 Z" />
<path fill="#fefefe" opacity="1.00" d=" M 234.93 350.92 C 237.96 347.60 242.78 347.39 246.96 347.28 C 266.68 347.32 286.40 347.55 306.11 347.20 C 306.13 354.46 306.12 361.72 306.09 368.99 C 287.06 369.43 268.03 368.94 248.99 369.29 C 245.05 369.19 240.84 369.49 237.21 367.70 C 231.42 364.45 230.40 355.64 234.93 350.92 M 241.56 351.29 C 247.35 352.01 253.19 351.62 259.00 351.64 C 264.81 351.62 270.65 352.01 276.44 351.29 C 270.84 349.25 264.80 350.65 259.00 350.37 C 253.19 350.65 247.17 349.26 241.56 351.29 M 278.22 355.13 C 278.15 358.33 278.08 361.53 278.00 364.73 C 279.63 363.75 281.26 362.79 282.89 361.83 C 284.31 362.59 285.74 363.36 287.16 364.14 C 287.52 362.70 287.88 361.26 288.25 359.82 C 290.72 359.65 293.20 359.52 295.67 359.39 C 295.67 359.23 295.67 358.91 295.67 358.75 C 292.82 358.66 289.95 358.22 287.54 356.59 C 284.79 354.71 281.36 355.20 278.22 355.13 M 255.22 358.23 C 255.22 358.62 255.24 359.39 255.24 359.77 C 262.08 359.66 268.93 359.66 275.77 359.77 C 275.77 359.39 275.76 358.62 275.76 358.24 C 268.91 358.34 262.06 358.34 255.22 358.23 Z" />
<path fill="#fefefe" opacity="1.00" d=" M 199.61 359.07 C 199.81 354.72 203.75 351.10 208.07 351.13 C 212.54 350.77 216.91 354.54 216.98 359.07 C 216.92 362.08 215.79 364.92 214.94 367.77 C 210.89 368.10 206.84 368.48 202.78 368.27 C 201.40 365.35 199.57 362.40 199.61 359.07 Z" />
</g>
<g id="#2a5fa3ff">
<path fill="#2a5fa3" opacity="1.00" d=" M 315.54 219.39 C 318.22 218.40 321.64 220.20 321.86 223.18 C 322.45 226.09 319.54 228.17 317.03 228.69 C 315.40 228.25 313.92 227.14 313.16 225.61 C 312.20 223.35 313.24 220.38 315.54 219.39 M 315.04 220.68 C 314.98 222.59 314.94 224.50 314.92 226.42 C 316.88 226.00 318.83 225.57 320.79 225.12 C 320.30 223.98 319.78 222.86 319.22 221.77 C 317.94 221.05 316.43 221.01 315.04 220.68 Z" />
<path fill="#2a5fa3" opacity="1.00" d=" M 126.54 224.42 C 128.69 223.13 132.01 223.47 133.30 225.82 C 135.00 228.50 132.95 232.42 129.83 232.72 C 127.14 232.96 124.75 230.60 124.40 228.02 C 124.58 226.60 125.37 225.26 126.54 224.42 M 126.61 225.59 C 126.95 227.44 126.52 229.75 128.19 231.07 C 130.63 231.53 132.71 229.63 132.15 227.15 C 130.84 225.40 128.49 225.90 126.61 225.59 Z" />
<path fill="#2a5fa3" opacity="1.00" d=" M 493.89 235.69 C 495.26 233.37 497.16 236.73 495.61 238.02 C 495.13 237.87 494.18 237.59 493.70 237.44 C 493.75 237.01 493.84 236.13 493.89 235.69 Z" />
<path fill="#2a5fa3" opacity="1.00" d=" M 466.72 237.99 C 468.44 238.00 470.16 238.03 471.89 238.06 C 472.09 240.25 472.29 242.44 472.52 244.64 C 471.04 244.93 469.57 245.23 468.10 245.52 C 467.62 243.01 467.15 240.50 466.72 237.99 Z" />
<path fill="#2a5fa3" opacity="1.00" d=" M 153.84 285.47 C 179.82 285.24 205.80 285.65 231.78 285.26 L 231.70 285.74 C 205.75 285.32 179.79 285.85 153.84 285.47 Z" />
<path fill="#2a5fa3" opacity="1.00" d=" M 197.86 300.53 C 201.90 300.36 205.95 300.35 210.01 300.40 C 235.72 300.48 261.44 300.32 287.15 300.47 C 283.10 300.62 279.04 300.64 274.99 300.60 C 249.28 300.52 223.57 300.68 197.86 300.53 Z" />
<path fill="#2a5fa3" opacity="1.00" d=" M 141.85 320.53 C 154.61 320.32 167.37 320.32 180.13 320.53 C 167.37 320.64 154.61 320.62 141.85 320.53 Z" />
<path fill="#2a5fa3" opacity="1.00" d=" M 122.67 344.69 C 124.13 344.18 125.59 343.67 127.07 343.25 C 131.42 342.93 135.79 343.20 140.14 343.40 C 137.09 343.61 134.05 343.96 131.01 344.29 C 131.01 347.96 130.82 351.71 131.80 355.29 C 133.37 360.67 137.66 365.12 142.89 367.07 C 146.41 368.41 150.22 368.71 153.95 368.86 C 161.41 369.08 168.87 368.85 176.30 368.13 C 176.30 369.35 176.30 370.59 176.31 371.82 C 177.61 371.83 178.92 371.85 180.23 371.86 C 182.20 371.87 184.17 371.87 186.14 371.86 C 187.66 371.85 189.19 371.83 190.71 371.82 C 190.72 370.52 190.73 369.22 190.74 367.93 C 194.75 367.96 198.76 368.11 202.78 368.27 C 206.84 368.48 210.89 368.10 214.94 367.77 C 220.08 367.55 225.22 367.99 230.33 368.56 C 233.87 370.53 237.76 372.09 241.90 371.94 C 263.29 371.65 284.69 371.87 306.08 371.79 C 314.09 371.76 322.11 371.51 330.11 371.98 C 338.06 372.54 346.04 372.29 354.00 372.32 C 383.33 372.33 412.67 372.28 442.00 372.35 C 446.45 372.34 450.89 372.08 455.34 371.89 C 458.52 371.78 461.69 371.85 464.87 371.99 C 480.62 372.58 496.40 372.35 512.16 372.17 C 512.28 369.69 512.44 367.22 512.47 364.74 L 512.55 365.33 C 512.70 367.59 512.87 369.86 513.04 372.12 C 514.39 372.18 515.75 372.23 517.12 372.27 C 509.82 373.65 502.37 373.09 495.00 373.17 C 484.99 373.10 474.96 373.41 464.96 372.85 C 457.97 372.50 450.98 373.08 444.00 373.17 C 410.00 373.16 376.00 373.15 342.00 373.17 C 329.87 373.02 317.68 372.00 305.58 373.33 C 300.73 373.77 295.86 373.70 291.00 373.67 C 237.66 373.60 184.33 373.65 131.00 373.61 C 120.30 373.40 109.61 373.38 98.91 373.56 C 97.07 373.69 95.33 373.10 93.73 372.25 C 103.33 371.65 112.95 371.90 122.57 371.95 C 122.44 367.05 122.22 362.14 122.15 357.24 C 122.15 353.05 122.41 348.86 122.67 344.69 Z" />
<path fill="#2a5fa3" opacity="1.00" d=" M 552.43 371.92 C 555.76 371.74 559.20 371.24 561.99 369.25 C 561.98 369.95 561.97 371.35 561.96 372.05 C 568.08 372.32 574.21 372.01 580.32 372.56 C 571.94 373.90 563.41 373.15 554.98 373.03 C 546.28 372.41 537.53 373.33 528.86 372.34 C 536.71 372.38 544.58 372.38 552.43 371.92 Z" />
</g>
<g id="#91b1dbff">
<path fill="#91b1db" opacity="1.00" d=" M 354.65 234.48 C 382.60 231.64 410.73 232.80 438.77 233.31 C 438.94 239.28 438.96 245.25 438.84 251.22 C 428.62 251.30 418.48 249.55 408.25 250.00 C 408.97 265.32 409.58 280.68 408.86 296.01 C 408.64 302.00 408.91 308.48 412.44 313.59 C 414.24 316.28 417.43 318.61 420.84 317.87 C 425.05 316.89 428.44 313.95 432.50 312.56 C 434.63 311.90 436.88 311.95 439.09 311.82 C 438.35 320.29 434.68 328.59 428.45 334.44 C 424.59 338.10 419.32 340.18 414.00 340.07 C 404.24 340.17 394.88 333.35 391.94 324.04 C 389.89 317.66 389.89 310.86 390.27 304.23 C 390.97 293.43 392.43 282.69 394.07 272.00 C 395.21 264.36 397.25 256.89 398.21 249.23 C 388.82 248.90 379.43 248.76 370.04 249.03 C 369.47 268.62 368.62 288.22 366.57 307.72 C 365.73 315.08 364.70 322.64 361.28 329.32 C 359.46 332.94 356.66 336.31 352.80 337.82 C 349.13 339.20 345.06 339.21 341.23 338.59 C 337.40 337.95 333.48 335.49 332.45 331.55 C 331.42 327.17 332.81 322.67 334.64 318.70 C 338.78 309.80 345.34 302.26 349.13 293.17 C 355.03 279.52 358.75 264.65 358.28 249.71 C 350.66 250.11 342.50 250.53 335.95 254.93 C 331.27 258.09 326.80 261.64 321.67 264.09 C 323.09 253.61 329.57 243.87 338.92 238.85 C 343.73 236.16 349.23 235.09 354.65 234.48 Z" />
<path fill="#91b1db" opacity="1.00" d=" M 563.41 270.66 C 565.00 271.48 566.63 272.25 568.10 273.29 C 568.88 275.64 567.00 278.03 564.67 278.36 C 561.24 279.25 557.80 280.06 554.42 281.11 C 557.31 281.84 560.23 282.53 563.15 283.19 C 563.07 284.89 563.01 286.58 562.94 288.29 C 557.62 287.61 552.10 286.19 546.87 288.07 C 547.53 287.10 548.19 286.13 548.85 285.16 C 546.90 281.19 545.46 276.98 544.68 272.63 C 546.56 272.85 548.47 273.02 550.33 273.49 C 551.64 276.21 551.99 279.25 552.61 282.18 C 556.12 278.25 559.73 274.42 563.41 270.66 Z" />
<path fill="#91b1db" opacity="1.00" d=" M 71.72 271.81 C 74.08 271.94 76.84 271.40 78.76 273.15 C 82.12 276.11 84.53 279.96 87.59 283.22 C 87.89 280.11 87.64 276.82 88.88 273.89 C 90.30 272.64 92.27 272.31 94.00 271.63 C 94.47 275.63 93.85 279.65 92.02 283.25 C 89.69 285.90 86.31 287.29 82.95 288.11 C 81.11 288.55 79.08 288.81 77.31 287.95 C 75.34 286.42 76.27 283.33 78.40 282.49 C 80.75 281.68 83.29 281.82 85.73 281.51 C 81.93 279.15 77.33 279.23 73.28 277.61 C 71.14 276.50 71.93 273.74 71.72 271.81 Z" />
<path fill="#91b1db" opacity="1.00" d=" M 97.74 282.65 C 99.57 281.99 101.53 281.86 103.44 281.60 C 102.79 284.31 102.50 287.37 100.47 289.48 C 97.52 292.66 93.71 294.95 89.70 296.55 C 87.40 296.96 85.05 296.83 82.73 296.84 C 82.98 294.85 81.93 292.04 84.25 290.99 C 86.35 290.16 88.68 290.35 90.88 290.61 C 92.96 291.69 93.59 288.78 91.23 288.96 C 91.05 288.07 90.69 286.30 90.52 285.42 L 91.02 286.19 C 92.01 287.79 93.04 289.37 94.06 290.95 C 95.10 288.11 95.91 285.11 97.74 282.65 Z" />
<path fill="#91b1db" opacity="1.00" d=" M 536.42 281.56 C 538.27 282.00 540.57 281.60 542.12 282.86 C 543.82 285.43 544.42 288.52 545.32 291.43 C 548.57 290.98 551.90 290.12 555.17 290.80 C 557.47 291.81 556.58 294.96 557.22 296.97 C 552.75 296.56 548.34 295.66 544.04 294.40 C 542.96 296.47 541.89 298.53 540.80 300.60 C 544.25 300.41 547.81 299.78 551.20 300.72 C 552.76 301.73 553.86 305.04 551.56 305.81 C 547.58 306.74 543.61 304.84 539.79 303.93 C 539.01 306.10 538.23 308.27 537.45 310.45 C 540.99 310.29 544.68 309.56 548.15 310.62 C 549.58 311.82 549.39 314.02 549.85 315.71 C 545.43 316.08 541.07 315.18 536.82 314.06 C 536.79 316.96 536.77 319.87 536.78 322.77 C 536.36 322.83 535.52 322.93 535.10 322.99 C 535.51 319.62 535.84 316.24 536.06 312.86 C 533.68 312.24 531.26 311.73 528.99 310.79 C 526.81 309.87 525.53 307.74 524.03 306.04 C 525.68 305.36 527.32 304.60 529.07 304.20 C 532.23 305.23 534.61 307.71 537.16 309.73 C 537.76 307.52 538.37 305.31 538.98 303.10 C 534.89 300.55 531.06 297.37 529.10 292.84 C 530.97 292.52 532.86 292.11 534.78 292.06 C 537.22 294.02 538.76 296.82 540.53 299.36 C 541.45 297.57 542.37 295.78 543.30 293.99 C 539.85 290.59 536.78 286.59 536.42 281.56 Z" />
<path fill="#91b1db" opacity="1.00" d=" M 104.59 292.23 C 106.33 291.18 108.53 291.89 109.86 293.26 C 109.43 298.21 104.02 300.29 100.69 303.16 C 101.35 305.33 102.01 307.51 102.67 309.69 C 105.20 307.54 107.62 304.96 110.90 304.00 C 112.73 304.72 114.32 305.91 115.96 306.97 C 112.50 310.01 108.25 311.85 103.86 313.07 C 103.10 313.31 102.35 313.56 101.60 313.81 C 97.70 315.27 93.56 315.97 89.40 315.79 C 89.34 314.69 89.22 312.48 89.16 311.38 C 93.42 310.31 97.82 310.04 102.18 310.51 C 101.41 308.26 100.64 306.00 99.88 303.74 C 96.47 304.85 93.08 306.03 89.73 307.31 C 88.72 306.01 86.75 304.98 87.07 303.08 C 86.98 301.37 88.70 300.23 90.23 300.13 C 92.88 300.13 95.52 300.34 98.17 300.53 C 97.88 299.02 97.60 297.51 97.32 296.00 C 98.04 297.22 98.76 298.45 99.47 299.68 C 101.00 297.09 102.30 294.25 104.59 292.23 Z" />
<path fill="#91b1db" opacity="1.00" d=" M 19.38 316.32 C 27.48 313.60 35.39 309.81 44.02 309.15 C 51.81 308.46 60.30 309.42 66.60 314.45 C 72.32 318.82 74.93 325.99 80.50 330.50 C 86.29 335.04 94.15 335.06 100.38 338.74 C 105.04 341.67 107.61 346.76 111.48 350.53 C 114.46 353.58 118.35 355.45 122.15 357.24 C 122.22 362.14 122.44 367.05 122.57 371.95 C 112.95 371.90 103.33 371.65 93.73 372.25 C 91.90 372.27 90.08 372.20 88.26 372.15 C 88.40 368.50 89.18 364.90 90.66 361.56 C 91.88 358.58 93.39 354.80 90.99 351.98 C 87.16 347.23 80.69 346.22 74.98 345.65 C 71.82 345.19 67.80 345.08 66.05 341.91 C 63.57 336.93 65.62 331.10 63.97 325.93 C 62.45 322.40 58.58 320.68 55.02 320.04 C 45.27 318.14 35.89 324.15 26.16 322.22 C 22.94 321.67 21.21 318.68 19.38 316.32 Z" />
<path fill="#91b1db" opacity="1.00" d=" M 573.25 314.30 C 579.40 309.62 587.49 308.52 595.01 309.07 C 603.92 309.63 612.02 313.69 620.40 316.36 C 618.57 318.60 616.92 321.49 613.88 322.16 C 603.86 324.31 594.13 317.98 584.12 320.18 C 580.84 320.91 577.29 322.51 575.83 325.74 C 574.19 330.74 575.76 336.22 574.09 341.22 C 572.68 344.39 568.86 345.09 565.79 345.55 C 560.91 346.28 555.67 346.57 551.46 349.42 C 549.30 350.84 547.38 353.23 547.79 355.98 C 548.42 361.51 550.80 366.64 552.43 371.92 C 544.58 372.38 536.71 372.38 528.86 372.34 C 524.94 372.24 521.03 372.31 517.12 372.27 C 515.75 372.23 514.39 372.18 513.04 372.12 C 512.87 369.86 512.70 367.59 512.55 365.33 C 512.85 363.24 513.26 361.17 513.56 359.09 C 518.87 356.95 524.31 354.57 528.35 350.37 C 532.02 346.73 534.50 341.90 538.90 339.03 C 545.08 335.24 552.84 335.03 558.79 330.78 C 564.78 326.37 567.27 318.74 573.25 314.30 Z" />
</g>
<g id="#ffb129ff">
<path fill="#ffb129" opacity="1.00" d=" M 506.29 234.04 C 511.91 235.27 517.46 236.79 522.95 238.51 C 522.65 240.03 522.36 241.55 522.07 243.07 C 520.48 242.67 518.90 242.27 517.33 241.85 C 518.48 243.00 519.71 244.10 520.65 245.45 C 520.78 247.36 520.43 249.25 520.22 251.15 C 518.05 250.96 515.88 250.77 513.72 250.59 C 515.41 251.47 517.09 252.35 518.79 253.24 C 518.21 255.56 517.62 257.89 517.03 260.21 C 515.37 259.85 513.73 259.49 512.09 259.11 C 513.39 260.42 514.85 261.63 515.78 263.26 C 515.58 265.27 514.94 267.21 514.42 269.16 C 512.59 268.80 510.77 268.45 508.96 268.10 C 510.47 269.10 511.99 270.10 513.52 271.11 C 512.99 273.10 512.47 275.09 511.95 277.09 C 510.35 277.14 508.75 277.18 507.16 277.23 C 508.37 277.94 509.59 278.64 510.82 279.35 C 510.59 281.20 510.36 283.06 510.14 284.92 C 504.68 284.97 499.22 285.08 493.76 285.06 C 493.83 281.77 493.94 278.49 494.23 275.21 C 498.21 261.48 502.44 247.82 506.29 234.04 Z" />
<path fill="#ffb129" opacity="1.00" d=" M 318.09 312.60 C 319.76 312.89 321.45 313.24 322.99 313.98 C 324.13 318.56 323.67 323.33 323.77 328.00 C 323.67 332.68 324.12 337.46 322.99 342.05 C 317.65 344.26 311.70 343.10 306.09 343.28 C 294.03 343.17 281.97 343.38 269.91 343.19 C 269.86 341.82 269.82 340.45 269.78 339.09 C 278.52 339.34 287.26 339.23 296.00 339.37 C 299.87 339.37 303.80 339.47 307.59 338.57 C 312.70 337.36 316.63 332.80 317.58 327.71 C 318.52 322.73 318.14 317.63 318.09 312.60 Z" />
<path fill="#ffb129" opacity="1.00" d=" M 241.00 339.36 C 245.78 339.44 250.55 339.04 255.27 338.31 C 255.23 339.92 255.17 341.53 255.13 343.14 C 249.79 343.25 244.46 343.14 239.13 343.24 C 228.67 343.37 218.20 343.20 207.74 343.15 C 209.96 341.94 212.09 340.57 214.09 339.03 C 223.06 339.34 232.03 339.21 241.00 339.36 Z" />
<path fill="#ffb129" opacity="1.00" d=" M 260.17 339.73 C 261.86 339.50 263.55 339.27 265.24 339.05 C 265.19 340.40 265.15 341.76 265.10 343.12 C 263.40 343.10 261.71 343.09 260.02 343.09 C 260.07 341.97 260.12 340.85 260.17 339.73 Z" />
</g>
<g id="#e9b0a7ff">
<path fill="#e9b0a7" opacity="1.00" d=" M 492.99 240.89 C 493.24 239.74 493.48 238.59 493.70 237.44 C 494.18 237.59 495.13 237.87 495.61 238.02 C 495.68 238.76 495.81 240.26 495.88 241.00 C 495.16 240.97 493.71 240.92 492.99 240.89 Z" />
</g>
<g id="#f38858ff">
<path fill="#f38858" opacity="1.00" d=" M 298.08 238.58 C 299.83 238.83 301.59 239.13 303.25 239.75 C 304.72 243.65 304.36 247.91 304.43 252.00 C 304.30 256.98 304.73 261.99 304.14 266.95 C 303.88 269.09 302.34 270.71 301.14 272.39 C 295.76 272.26 290.38 272.07 284.99 272.09 C 249.31 272.18 213.62 272.04 177.94 272.17 C 177.92 270.44 177.90 268.72 177.88 267.01 C 206.25 266.99 234.63 267.00 263.00 267.00 C 269.27 266.94 275.59 267.51 281.84 266.67 C 289.52 265.63 296.09 259.20 297.41 251.58 C 298.20 247.30 298.06 242.92 298.08 238.58 Z" />
<path fill="#f38858" opacity="1.00" d=" M 468.10 245.52 C 469.57 245.23 471.04 244.93 472.52 244.64 C 474.07 258.11 476.15 271.52 477.29 285.04 C 475.91 285.03 474.54 285.01 473.18 285.01 C 471.88 273.10 469.95 261.27 468.74 249.36 C 470.00 249.74 470.78 249.35 471.07 248.19 C 470.38 247.36 469.53 247.26 468.52 247.90 L 468.40 247.15 C 469.43 248.23 471.74 246.30 469.81 245.71 C 469.43 245.88 468.65 246.21 468.26 246.38 L 468.10 245.52 Z" />
<path fill="#f38858" opacity="1.00" d=" M 124.61 267.02 C 132.83 266.99 141.04 267.00 149.26 266.98 C 149.24 268.75 149.22 270.51 149.21 272.28 C 144.12 272.31 139.03 272.46 133.94 272.45 C 131.20 272.38 128.37 272.34 125.80 271.27 C 125.24 269.90 124.90 268.46 124.61 267.02 Z" />
</g>
<g id="#326ab3ff">
<path fill="#326ab3" opacity="1.00" d=" M 490.52 264.15 C 491.16 256.38 491.10 248.50 492.99 240.89 C 493.71 240.92 495.16 240.97 495.88 241.00 C 496.61 252.43 494.38 263.79 494.23 275.21 C 493.94 278.49 493.83 281.77 493.76 285.06 C 492.17 285.06 490.59 285.07 489.01 285.08 C 489.45 278.10 489.96 271.12 490.52 264.15 Z" />
<path fill="#326ab3" opacity="1.00" d=" M 140.14 343.40 C 152.15 343.03 164.16 343.41 176.17 343.21 C 176.47 351.51 176.28 359.82 176.30 368.13 C 168.87 368.85 161.41 369.08 153.95 368.86 C 150.22 368.71 146.41 368.41 142.89 367.07 C 137.66 365.12 133.37 360.67 131.80 355.29 C 130.82 351.71 131.01 347.96 131.01 344.29 C 134.05 343.96 137.09 343.61 140.14 343.40 Z" />
<path fill="#326ab3" opacity="1.00" d=" M 180.19 343.19 C 182.18 343.19 184.17 343.19 186.17 343.20 C 186.55 352.74 186.58 362.31 186.14 371.86 C 184.17 371.87 182.20 371.87 180.23 371.86 C 180.46 362.31 180.51 352.75 180.19 343.19 Z" />
<path fill="#326ab3" opacity="1.00" d=" M 190.87 343.22 C 196.49 343.25 202.12 343.32 207.74 343.15 C 218.20 343.20 228.67 343.37 239.13 343.24 C 234.42 345.06 229.82 348.38 228.37 353.45 C 226.65 358.53 228.68 363.76 230.33 368.56 C 225.22 367.99 220.08 367.55 214.94 367.77 C 215.79 364.92 216.92 362.08 216.98 359.07 C 216.91 354.54 212.54 350.77 208.07 351.13 C 203.75 351.10 199.81 354.72 199.61 359.07 C 199.57 362.40 201.40 365.35 202.78 368.27 C 198.76 368.11 194.75 367.96 190.74 367.93 C 190.75 359.69 190.49 351.45 190.87 343.22 Z" />
<path fill="#326ab3" opacity="1.00" d=" M 278.22 355.13 C 281.36 355.20 284.79 354.71 287.54 356.59 C 289.95 358.22 292.82 358.66 295.67 358.75 C 295.67 358.91 295.67 359.23 295.67 359.39 C 293.20 359.52 290.72 359.65 288.25 359.82 C 287.88 361.26 287.52 362.70 287.16 364.14 C 285.74 363.36 284.31 362.59 282.89 361.83 C 281.26 362.79 279.63 363.75 278.00 364.73 C 278.08 361.53 278.15 358.33 278.22 355.13 Z" />
</g>
<g id="#867f92eb">
<path fill="#867f92" opacity="0.92" d=" M 468.26 246.38 C 468.65 246.21 469.43 245.88 469.81 245.71 C 471.74 246.30 469.43 248.23 468.40 247.15 L 468.26 246.38 Z" />
<path fill="#867f92" opacity="0.92" d=" M 468.52 247.90 C 469.53 247.26 470.38 247.36 471.07 248.19 C 470.78 249.35 470.00 249.74 468.74 249.36 C 468.69 248.99 468.57 248.27 468.52 247.90 Z" />
</g>
<g id="#c14e4fff">
<path fill="#c14e4f" opacity="1.00" d=" M 237.81 284.25 C 241.12 284.27 244.44 284.27 247.76 284.26 C 247.80 288.16 247.74 292.06 247.51 295.95 C 244.33 294.64 240.90 294.61 237.65 295.69 C 237.56 291.88 237.60 288.06 237.81 284.25 Z" />
<path fill="#c14e4f" opacity="1.00" d=" M 182.33 323.18 C 185.13 323.18 187.94 323.17 190.74 323.16 C 190.81 326.30 190.89 329.45 191.05 332.59 C 189.66 331.77 188.31 330.87 186.82 330.27 C 185.09 330.73 183.56 331.69 182.00 332.53 C 182.17 329.41 182.26 326.29 182.33 323.18 Z" />
<path fill="#c14e4f" opacity="1.00" d=" M 398.36 350.19 C 401.14 350.19 403.92 350.19 406.71 350.21 C 406.68 352.95 406.68 355.69 406.68 358.44 C 403.85 358.56 401.04 358.84 398.26 359.36 C 398.34 356.30 398.36 353.24 398.36 350.19 Z" />
</g>
<g id="#de383fff">
<path fill="#de383f" opacity="1.00" d=" M 454.35 295.34 C 452.72 291.54 455.04 286.20 459.34 285.55 C 463.90 284.72 468.57 285.04 473.18 285.01 C 474.54 285.01 475.91 285.03 477.29 285.04 C 481.19 285.08 485.10 285.09 489.01 285.08 C 490.59 285.07 492.17 285.06 493.76 285.06 C 499.22 285.08 504.68 284.97 510.14 284.92 C 513.19 284.99 516.32 284.96 519.27 285.87 C 522.78 286.93 524.56 291.19 523.59 294.58 C 522.72 296.84 520.98 298.60 519.46 300.44 C 499.28 300.23 479.08 300.27 458.90 300.42 C 457.27 298.84 455.46 297.35 454.35 295.34 Z" />
<path fill="#de383f" opacity="1.00" d=" M 460.39 314.93 C 470.05 313.48 480.22 313.83 489.34 317.62 C 496.52 320.59 502.23 326.56 505.40 333.61 C 509.90 343.39 510.40 354.31 512.47 364.74 C 512.44 367.22 512.28 369.69 512.16 372.17 C 496.40 372.35 480.62 372.58 464.87 371.99 C 463.78 352.94 461.36 334.00 460.39 314.93 Z" />
</g>
<g id="#a9c6ebff">
<path fill="#a9c6eb" opacity="1.00" d=" M 46.04 301.09 C 54.40 300.21 62.58 296.89 71.08 298.01 C 76.29 298.66 80.70 302.11 83.76 306.22 C 86.04 309.16 87.52 312.60 89.40 315.79 C 92.41 320.66 98.14 322.24 103.45 323.03 C 103.04 319.92 102.48 316.82 101.60 313.81 C 102.35 313.56 103.10 313.31 103.86 313.07 C 103.90 316.28 104.03 319.49 104.18 322.70 C 109.81 323.69 115.95 323.88 120.84 327.16 C 125.71 330.95 125.84 337.70 127.07 343.25 C 125.59 343.67 124.13 344.18 122.67 344.69 C 122.41 348.86 122.15 353.05 122.15 357.24 C 118.35 355.45 114.46 353.58 111.48 350.53 C 107.61 346.76 105.04 341.67 100.38 338.74 C 94.15 335.06 86.29 335.04 80.50 330.50 C 74.93 325.99 72.32 318.82 66.60 314.45 C 60.30 309.42 51.81 308.46 44.02 309.15 C 35.39 309.81 27.48 313.60 19.38 316.32 C 19.76 313.71 19.87 310.80 21.78 308.76 C 24.65 305.45 28.57 303.00 32.83 301.98 C 37.18 301.15 41.66 301.70 46.04 301.09 Z" />
<path fill="#a9c6eb" opacity="1.00" d=" M 556.47 305.45 C 559.11 302.05 562.91 299.75 566.92 298.31 C 573.45 296.90 580.14 298.76 586.60 299.81 C 592.00 300.98 597.51 301.54 603.04 301.54 C 608.63 301.46 613.84 304.42 617.60 308.39 C 619.73 310.47 619.92 313.58 620.40 316.36 C 612.02 313.69 603.92 309.63 595.01 309.07 C 587.49 308.52 579.40 309.62 573.25 314.30 C 567.27 318.74 564.78 326.37 558.79 330.78 C 552.84 335.03 545.08 335.24 538.90 339.03 C 534.50 341.90 532.02 346.73 528.35 350.37 C 524.31 354.57 518.87 356.95 513.56 359.09 C 514.38 348.68 515.72 338.32 516.65 327.92 C 522.39 325.02 528.69 323.45 535.10 322.99 C 535.52 322.93 536.36 322.83 536.78 322.77 C 540.81 322.13 545.36 321.50 548.22 318.26 C 551.62 314.43 553.23 309.40 556.47 305.45 Z" />
</g>
<g id="#b22d32ff">
<path fill="#b22d32" opacity="1.00" d=" M 458.90 300.42 C 479.08 300.27 499.28 300.23 519.46 300.44 C 518.42 309.59 517.46 318.74 516.65 327.92 C 515.72 338.32 514.38 348.68 513.56 359.09 C 513.26 361.17 512.85 363.24 512.55 365.33 L 512.47 364.74 C 510.40 354.31 509.90 343.39 505.40 333.61 C 502.23 326.56 496.52 320.59 489.34 317.62 C 480.22 313.83 470.05 313.48 460.39 314.93 C 460.03 310.08 459.59 305.23 458.90 300.42 Z" />
</g>
<g id="#fecc75ff">
<path fill="#fecc75" opacity="1.00" d=" M 139.91 312.82 C 143.99 312.69 148.07 312.57 152.15 312.73 C 170.72 313.25 189.30 312.71 207.88 312.96 C 212.30 315.45 216.73 319.06 217.82 324.29 C 219.09 329.48 217.18 334.86 214.09 339.03 C 212.09 340.57 209.96 341.94 207.74 343.15 C 202.12 343.32 196.49 343.25 190.87 343.22 C 189.30 343.20 187.73 343.20 186.17 343.20 C 184.17 343.19 182.18 343.19 180.19 343.19 C 178.85 343.19 177.51 343.20 176.17 343.21 C 164.16 343.41 152.15 343.03 140.14 343.40 C 140.07 341.90 140.01 340.40 139.96 338.91 C 160.32 338.38 180.70 338.76 201.06 338.76 C 204.44 338.65 208.22 338.29 210.70 335.71 C 214.92 331.70 214.93 324.28 210.71 320.27 C 207.42 316.96 202.39 317.08 198.06 316.96 C 178.66 317.16 159.26 317.09 139.86 317.04 C 139.87 315.63 139.89 314.22 139.91 312.82 Z" />
</g>
<g id="#ffbc47ff">
<path fill="#ffbc47" opacity="1.00" d=" M 207.88 312.96 C 223.63 312.97 239.39 312.90 255.14 312.94 C 255.36 321.40 255.43 329.86 255.27 338.31 C 250.55 339.04 245.78 339.44 241.00 339.36 C 232.03 339.21 223.06 339.34 214.09 339.03 C 217.18 334.86 219.09 329.48 217.82 324.29 C 216.73 319.06 212.30 315.45 207.88 312.96 M 233.48 320.36 C 228.78 322.28 227.22 328.81 230.18 332.83 C 232.80 336.75 238.87 337.44 242.43 334.41 C 245.88 331.59 246.35 325.92 243.46 322.54 C 241.12 319.66 236.81 318.85 233.48 320.36 Z" />
<path fill="#ffbc47" opacity="1.00" d=" M 259.17 312.95 C 261.16 312.95 263.14 312.95 265.13 312.95 C 265.45 321.65 265.49 330.35 265.24 339.05 C 263.55 339.27 261.86 339.50 260.17 339.73 C 260.12 340.85 260.07 341.97 260.02 343.09 L 259.04 343.10 C 259.53 333.05 259.42 323.00 259.17 312.95 Z" />
<path fill="#ffbc47" opacity="1.00" d=" M 269.87 312.95 C 282.98 312.83 296.10 313.12 309.21 312.83 C 312.17 312.74 315.13 312.58 318.09 312.60 C 318.14 317.63 318.52 322.73 317.58 327.71 C 316.63 332.80 312.70 337.36 307.59 338.57 C 303.80 339.47 299.87 339.37 296.00 339.37 C 287.26 339.23 278.52 339.34 269.78 339.09 C 269.55 330.38 269.54 321.66 269.87 312.95 Z" />
</g>
<g id="#6691caff">
<path fill="#6691ca" opacity="1.00" d=" M 239.13 343.24 C 244.46 343.14 249.79 343.25 255.13 343.14 C 256.43 343.12 257.73 343.10 259.04 343.10 L 260.02 343.09 C 261.71 343.09 263.40 343.10 265.10 343.12 C 266.70 343.13 268.30 343.16 269.91 343.19 C 281.97 343.38 294.03 343.17 306.09 343.28 C 306.09 344.58 306.10 345.89 306.11 347.20 C 286.40 347.55 266.68 347.32 246.96 347.28 C 242.78 347.39 237.96 347.60 234.93 350.92 C 230.40 355.64 231.42 364.45 237.21 367.70 C 240.84 369.49 245.05 369.19 248.99 369.29 C 268.03 368.94 287.06 369.43 306.09 368.99 C 306.09 369.69 306.08 371.09 306.08 371.79 C 284.69 371.87 263.29 371.65 241.90 371.94 C 237.76 372.09 233.87 370.53 230.33 368.56 C 228.68 363.76 226.65 358.53 228.37 353.45 C 229.82 348.38 234.42 345.06 239.13 343.24 Z" />
</g>
<g id="#3235509b">
<path fill="#323550" opacity="0.61" d=" M 44.51 372.48 C 50.97 371.52 57.50 371.96 64.00 371.93 C 70.83 371.99 77.69 371.47 84.48 372.48 C 78.10 374.08 71.50 373.27 65.00 373.36 C 58.17 373.21 51.23 374.15 44.51 372.48 Z" />
<path fill="#323550" opacity="0.61" d=" M 588.37 372.45 C 596.40 371.56 604.56 371.54 612.58 372.47 C 609.76 373.09 606.89 373.50 604.01 373.49 C 598.79 373.46 593.47 373.82 588.37 372.45 Z" />
</g>
</svg>
